M48
METRIC,0000.00
T01C0.3
T02C0.5
T03C0.7
T04C0.8
T05C0.9
T06C1.0
T07C1.15
T08C1.168
T09C1.2
T10C1.25
T11C1.5
T12C2.0
T13C3.2
T14C4.0
%
T01
X+003366Y+003509
X+003096Y+003699
X+002556Y+003731
X+002556Y+004112
X+002588Y+004366
X+003080Y+004445
X+003636Y+004445
X+003937Y+004429
X+003890Y+005017
X+003874Y+005207
X+003572Y+005223
X+003636Y+005668
X+003302Y+005985
X+003604Y+006414
X+003604Y+006652
X+003175Y+006526
X+002873Y+006652
X+002715Y+006287
X+003254Y+007017
X+003096Y+007271
X+002746Y+007287
X+002746Y+007636
X+002794Y+007796
X+002969Y+007652
X+002969Y+008176
X+002858Y+008304
X+002937Y+008558
X+003016Y+008812
X+003334Y+008335
X+003604Y+007859
X+003604Y+007700
X+003604Y+007335
X+003604Y+007208
X+004588Y+007034
X+004874Y+007287
X+005064Y+007652
X+005255Y+007924
X+004985Y+008050
X+004779Y+008176
X+004874Y+008300
X+004969Y+008430
X+005064Y+008558
X+005350Y+008684
X+005445Y+008558
X+005255Y+008812
X+005064Y+008875
X+005160Y+009066
X+005541Y+009192
X+005350Y+009510
X+005350Y+009700
X+005128Y+009526
X+005112Y+009923
X+004969Y+010082
X+004779Y+010082
X+004969Y+010336
X+005112Y+010336
X+005128Y+010208
X+005160Y+010462
X+005160Y+010590
X+005064Y+010717
X+004271Y+010844
X+004191Y+011304
X+004064Y+011558
X+003826Y+011653
X+003794Y+011939
X+003540Y+011971
X+003254Y+011891
X+003413Y+011209
X+002858Y+011209
X+002223Y+011812
X+002207Y+012018
X+001937Y+012034
X+001778Y+011939
X+001381Y+012034
X+001397Y+011653
X+001841Y+011113
X+001889Y+012558
X+002143Y+013257
X+002143Y+013670
X+001603Y+014114
X+002985Y+014209
X+002985Y+013670
X+002985Y+013257
X+004048Y+012558
X+004556Y+012145
X+004683Y+011971
X+004937Y+011749
X+005064Y+011876
X+005350Y+011812
X+005699Y+012082
X+005922Y+011891
X+005827Y+011463
X+006017Y+011304
X+006223Y+011542
X+006049Y+010875
X+006589Y+010336
X+006684Y+010208
X+006969Y+009954
X+007065Y+010082
X+006779Y+009828
X+006874Y+009748
X+006969Y+009574
X+006874Y+009446
X+007160Y+009320
X+007351Y+009320
X+007049Y+009066
X+007049Y+008812
X+007446Y+008558
X+007541Y+008812
X+008129Y+008811
X+008049Y+009319
X+007970Y+009573
X+007970Y+009827
X+008208Y+009706
X+008256Y+010081
X+008224Y+010447
X+008399Y+010447
X+008589Y+010447
X+008589Y+010875
X+008399Y+010875
X+008224Y+010875
X+008224Y+011304
X+008399Y+011304
X+008589Y+011304
X+008414Y+011558
X+008748Y+011860
X+009272Y+011621
X+008049Y+011923
X+007954Y+011733
X+007795Y+011558
X+007255Y+011542
X+007351Y+013035
X+007605Y+013035
X+007859Y+013035
X+008113Y+013463
X+008367Y+013463
X+008367Y+013654
X+007859Y+013654
X+007589Y+013654
X+007351Y+013654
X+007097Y+013654
X+006858Y+013352
X+006684Y+013558
X+006462Y+013638
X+006398Y+013400
X+006208Y+013209
X+005715Y+013400
X+005445Y+013066
X+005191Y+013289
X+005271Y+013543
X+005842Y+014416
X+006081Y+014321
X+006319Y+014416
X+006303Y+014178
X+006446Y+014162
X+006700Y+014321
X+006731Y+014654
X+007097Y+014321
X+007351Y+014321
X+007605Y+014321
X+007859Y+014321
X+008113Y+014321
X+008367Y+014321
X+008621Y+014321
X+008891Y+014321
X+009303Y+014146
X+009288Y+013558
X+008494Y+014575
X+008494Y+015257
X+008732Y+015257
X+008732Y+015559
X+009065Y+015464
X+009494Y+015130
X+008557Y+016099
X+008176Y+016051
X+007922Y+016257
X+008049Y+016607
X+007716Y+016639
X+008700Y+016940
X+008780Y+016877
X+008843Y+016797
X+008907Y+016877
X+008986Y+016940
X+008907Y+017004
X+008843Y+017083
X+008780Y+017004
X+007986Y+015575
X+007986Y+015257
X+007732Y+015257
X+007478Y+015257
X+007224Y+015257
X+006970Y+015257
X+006716Y+015257
X+006462Y+015257
X+006462Y+015575
X+005954Y+015559
X+005699Y+015559
X+005445Y+015559
X+004937Y+015559
X+004271Y+015892
X+004064Y+016480
X+003810Y+016575
X+003572Y+016464
X+003461Y+016956
X+003683Y+016956
X+003953Y+016956
X+004175Y+016956
X+004445Y+016956
X+004668Y+016940
X+004556Y+016480
X+004318Y+016575
X+004493Y+017385
X+004683Y+017718
X+004302Y+017750
X+003858Y+017401
X+003858Y+018147
X+005398Y+018163
X+006303Y+017464
X+006620Y+017464
X+005731Y+014797
X+005858Y+014702
X+004017Y+015067
X+003763Y+014829
X+003667Y+014908
X+003572Y+014987
X+003429Y+015321
X+003350Y+015908
X+005699Y+012511
X+006081Y+012479
X+006843Y+013019
X+007097Y+013035
X+007160Y+009706
X+006398Y+009669
X+006493Y+009192
X+007144Y+007922
X+007398Y+008065
X+007398Y+007763
X+007049Y+007621
X+006477Y+007319
X+006874Y+006525
X+007065Y+005938
X+007589Y+006049
X+007954Y+006271
X+007954Y+006525
X+007954Y+006763
X+007811Y+007303
X+008446Y+007303
X+008780Y+007192
X+009256Y+007605
X+009526Y+007478
X+009478Y+007176
X+008859Y+007843
X+008907Y+008176
X+008875Y+008557
X+008780Y+008684
X+008224Y+008176
X+007954Y+008303
X+008097Y+006049
X+008589Y+005779
X+009065Y+005112
X+009573Y+005588
X+009573Y+004620
X+009431Y+003382
X+008526Y+002572
X+008256Y+002572
X+007986Y+002572
X+007700Y+002572
X+007430Y+002572
X+007144Y+002572
X+006858Y+002572
X+006557Y+002778
X+006446Y+002445
X+006192Y+002477
X+006271Y+002016
X+006017Y+003112
X+006176Y+003413
X+005890Y+003651
X+006081Y+003810
X+005572Y+004223
X+005255Y+004493
X+004985Y+004477
X+004842Y+004477
X+005398Y+004731
X+005636Y+004842
X+005382Y+005001
X+005160Y+005001
X+004969Y+005334
X+004922Y+005493
X+004906Y+005922
X+004683Y+006303
X+004874Y+006414
X+004985Y+006780
X+005350Y+007033
X+005414Y+007557
X+004683Y+007796
X+004683Y+008558
X+004588Y+008938
X+004779Y+009320
X+004588Y+009828
X+003413Y+009399
X+002445Y+008176
X+001445Y+008351
X+002064Y+007160
X+001429Y+006033
X+002032Y+004858
X+002032Y+004429
X+001460Y+004255
X+001460Y+004096
X+001397Y+003318
X+001572Y+003318
X+001445Y+002334
X+001445Y+002175
X+001794Y+001778
X+001730Y+001619
X+001794Y+001460
X+001953Y+001381
X+002111Y+001445
X+002191Y+001619
X+002111Y+001778
X+001953Y+001857
X+002873Y+001635
X+003302Y+001524
X+004191Y+001683
X+004572Y+001683
X+004842Y+001619
X+004747Y+002286
X+005033Y+002397
X+004384Y+002601
X+004477Y+002810
X+004144Y+002429
X+003826Y+002350
X+002937Y+002429
X+002619Y+002778
X+002619Y+003064
X+004064Y+003556
X+005366Y+003556
X+005477Y+003397
X+005620Y+003254
X+006747Y+003683
X+007033Y+002953
X+007144Y+002873
X+007303Y+003096
X+007430Y+002873
X+007700Y+002873
X+007970Y+002889
X+008637Y+001714
X+008637Y+001492
X+009176Y+001683
X+009367Y+001619
X+009542Y+001683
X+009637Y+001889
X+009573Y+002080
X+009367Y+002159
X+009176Y+002095
X+009097Y+001889
X+007922Y+004255
X+006541Y+005096
X+005827Y+005176
X+005954Y+005588
X+005731Y+005715
X+005731Y+005922
X+005938Y+005922
X+005938Y+006255
X+005731Y+006255
X+005350Y+005715
X+005382Y+005493
X+004477Y+005747
X+004477Y+005176
X+004302Y+006398
X+004493Y+006526
X+002762Y+005207
X+002762Y+004953
X+005954Y+004620
T02
X+008843Y+016940
X+008113Y+017385
X+007430Y+017877
X+007763Y+018401
X+006858Y+017321
X+005636Y+017718
X+009303Y+013892
X+009605Y+012812
X+009224Y+011098
X+004064Y+006081
T03
X+002886Y+018967G85X+002702Y+018967
X+004140Y+018967G85X+003956Y+018967
X+006188Y+018967G85X+006004Y+018967
X+007494Y+006747
X+007367Y+006525
X+007621Y+006525
X+008224Y+006430
X+008478Y+006430
X+008351Y+006652
T04
X+001955Y+003953G85X+001880Y+003953
X+001955Y+002655G85X+001880Y+002655
T05
X+002889Y+002762
X+003143Y+002762
X+003397Y+002762
X+003651Y+002762
X+003905Y+002762
X+004715Y+002762
X+004969Y+002762
X+005223Y+002762
X+005477Y+002762
X+005731Y+002762
X+005985Y+002762
T06
X+003048Y+018401
X+002794Y+018401
X+002715Y+017766
X+002969Y+017766
X+002334Y+017591
X+002334Y+017337
X+002508Y+016972
X+002867Y+016613
X+004048Y+015416
X+004302Y+015416
X+004556Y+015416
X+004810Y+015416
X+005064Y+015416
X+005318Y+015416
X+005572Y+015416
X+005826Y+015416
X+006080Y+015416
X+006334Y+015416
X+006588Y+015416
X+006842Y+015416
X+007096Y+015416
X+007350Y+015416
X+007604Y+015416
X+007858Y+015416
X+008112Y+015416
X+008366Y+015416
X+008620Y+015416
X+008874Y+015416
X+008874Y+013892
X+008620Y+013892
X+008366Y+013892
X+008112Y+013892
X+007858Y+013892
X+007604Y+013892
X+007350Y+013892
X+007096Y+013892
X+006842Y+013892
X+006588Y+013892
X+006334Y+013892
X+006080Y+013892
X+005826Y+013892
X+005572Y+013892
X+005318Y+013892
X+005064Y+013892
X+004810Y+013892
X+004556Y+013892
X+004302Y+013892
X+004048Y+013892
X+004175Y+012812
X+003921Y+012812
X+003667Y+012812
X+003413Y+012812
X+003159Y+012812
X+002905Y+012812
X+002651Y+012812
X+002397Y+012812
X+002143Y+012812
X+001889Y+012812
X+001889Y+012304
X+002143Y+012304
X+002397Y+012304
X+002651Y+012304
X+002905Y+012304
X+003159Y+012304
X+003413Y+012304
X+003667Y+012304
X+003921Y+012304
X+004175Y+012304
X+004429Y+012304
X+004683Y+012304
X+004937Y+012304
X+005191Y+012304
X+005445Y+012304
X+005699Y+012304
X+005953Y+012304
X+006207Y+012304
X+006461Y+012304
X+006715Y+012304
X+006969Y+012304
X+007223Y+012304
X+007477Y+012304
X+007731Y+012304
X+007985Y+012304
X+008239Y+012304
X+008493Y+012304
X+008747Y+012304
X+009001Y+012304
X+009255Y+012304
X+009255Y+012812
X+009001Y+012812
X+008747Y+012812
X+008493Y+012812
X+008239Y+012812
X+007985Y+012812
X+007731Y+012812
X+007477Y+012812
X+007223Y+012812
X+006969Y+012812
X+006715Y+012812
X+006461Y+012812
X+006207Y+012812
X+005953Y+012812
X+005699Y+012812
X+005445Y+012812
X+005191Y+012812
X+004937Y+012812
X+004683Y+012812
X+004429Y+012812
X+003810Y+011098
X+003810Y+010844
X+003810Y+010590
X+003810Y+010336
X+003810Y+010082
X+003810Y+009828
X+003810Y+009574
X+003810Y+009320
X+003810Y+009066
X+003810Y+008812
X+003810Y+008558
X+003810Y+008304
X+003810Y+008050
X+003810Y+007796
X+003810Y+007542
X+003810Y+007288
X+003810Y+007034
X+003810Y+006780
X+003810Y+006526
X+003810Y+006272
X+003905Y+005461
X+004159Y+005461
X+004413Y+005461
X+004667Y+005461
X+004667Y+004699
X+004413Y+004699
X+004159Y+004699
X+003905Y+004699
X+003651Y+004699
X+003397Y+004699
X+003143Y+004699
X+002889Y+004699
X+002889Y+005461
X+003143Y+005461
X+003397Y+005461
X+003651Y+005461
X+003651Y+003921
X+003905Y+003921
X+004159Y+003921
X+004413Y+003921
X+004667Y+003921
X+004667Y+003159
X+004413Y+003159
X+004159Y+003159
X+003905Y+003159
X+003651Y+003159
X+003397Y+003159
X+003143Y+003159
X+002889Y+003159
X+002889Y+003921
X+003143Y+003921
X+003397Y+003921
X+001937Y+005144
X+001429Y+005144
X+002286Y+006272
X+002286Y+006526
X+002286Y+006780
X+002286Y+007034
X+002286Y+007288
X+002286Y+007542
X+002286Y+007796
X+002286Y+008050
X+002286Y+008304
X+002286Y+008558
X+002286Y+008812
X+002286Y+009066
X+002286Y+009320
X+002286Y+009574
X+002286Y+009828
X+002286Y+010082
X+002286Y+010336
X+002286Y+010590
X+002286Y+010844
X+002286Y+011098
X+001603Y+011113
X+001603Y+010605
X+004302Y+010590
X+004302Y+010336
X+004302Y+010082
X+004302Y+009828
X+004302Y+009574
X+004302Y+009320
X+004302Y+009066
X+004302Y+008812
X+004302Y+008558
X+004302Y+008304
X+004302Y+008050
X+004302Y+007796
X+005826Y+007796
X+005826Y+008050
X+005826Y+008304
X+005826Y+008558
X+005826Y+008812
X+005826Y+009066
X+005826Y+009320
X+005826Y+009574
X+005826Y+009828
X+005826Y+010082
X+005826Y+010336
X+005826Y+010590
X+006223Y+010590
X+006223Y+010336
X+006223Y+010082
X+006223Y+009828
X+006223Y+009574
X+006223Y+009320
X+006223Y+009066
X+006223Y+008812
X+006223Y+008558
X+006223Y+008304
X+006223Y+008050
X+006223Y+007796
X+007747Y+007796
X+007747Y+008050
X+007747Y+008304
X+007747Y+008558
X+007747Y+008812
X+007747Y+009066
X+007747Y+009320
X+007747Y+009574
X+007747Y+009828
X+007747Y+010082
X+007747Y+010336
X+007747Y+010590
X+008494Y+010081
X+008494Y+009827
X+008494Y+009573
X+008494Y+009319
X+008494Y+009065
X+008494Y+008811
X+008494Y+008557
X+008494Y+008303
X+008494Y+008049
X+008494Y+007795
X+009256Y+007795
X+009256Y+008049
X+009256Y+008303
X+009256Y+008557
X+009256Y+008811
X+009256Y+009065
X+009256Y+009319
X+009256Y+009573
X+009256Y+009827
X+009256Y+010081
X+009319Y+006112
X+009573Y+006112
X+008446Y+005350
X+008033Y+005445
X+007779Y+005445
X+007525Y+005445
X+007113Y+005350
X+007113Y+004868
X+007525Y+004779
X+007779Y+004779
X+008033Y+004779
X+008446Y+004868
X+008192Y+004001
X+007938Y+004001
X+007684Y+004001
X+007430Y+004001
X+007176Y+004001
X+006922Y+004001
X+006668Y+004001
X+006414Y+004001
X+006414Y+003239
X+006668Y+003239
X+006922Y+003239
X+007176Y+003239
X+007430Y+003239
X+007684Y+003239
X+007938Y+003239
X+008192Y+003239
X+008922Y+003125
X+009176Y+003125
X+009430Y+003125
X+009430Y+003659
X+009176Y+003659
X+008922Y+003659
X+007112Y+016575
X+006858Y+016575
X+006335Y+016464
X+006335Y+016718
X+006001Y+016956
X+006001Y+017210
X+006001Y+017464
X+006001Y+017718
X+006096Y+018353
X+006350Y+018353
X+006596Y+019044G85X+006596Y+018890
X+006173Y+019417G85X+006019Y+019417
X+005596Y+019044G85X+005596Y+018890
X+004548Y+019044G85X+004548Y+018890
X+004302Y+018433
X+004048Y+018433
X+003548Y+019044G85X+003548Y+018890
X+003294Y+018890G85X+003294Y+019044
X+002871Y+019417G85X+002717Y+019417
X+002294Y+018890G85X+002294Y+019044
X+004125Y+019417G85X+003971Y+019417
X+005239Y+017718
X+005239Y+017464
X+005239Y+017210
X+005239Y+016956
X+005636Y+016511
X+005890Y+016511
X+008135Y+018887G85X+008135Y+019087
X+008705Y+019287G85X+008505Y+019287
X+009074Y+018886G85X+009074Y+019086
X+008705Y+018687G85X+008505Y+018687
X+001603Y+015194
X+001603Y+014686
T07
X+005668Y+002207
X+005303Y+002207
T08
X+002583Y+002189
X+002860Y+002189
X+003137Y+002189
X+003414Y+002189
X+003691Y+002189
X+003968Y+002189
X+004245Y+002189
X+004521Y+002189
X+004384Y+001905
X+004107Y+001905
X+003831Y+001905
X+003554Y+001905
X+003277Y+001905
X+003000Y+001905
X+002723Y+001905
X+006634Y+002189
X+006910Y+002189
X+007187Y+002189
X+007464Y+002189
X+007741Y+002189
X+008018Y+002189
X+008295Y+002189
X+008572Y+002189
X+008434Y+001905
X+008158Y+001905
X+007881Y+001905
X+007604Y+001905
X+007327Y+001905
X+007050Y+001905
X+006773Y+001905
T09
X+003127Y+014813
X+003127Y+015067
X+003127Y+015321
T10
X+001917Y+003603
X+001917Y+003305
X+001917Y+003004
T11
X+008922Y+002770
X+009430Y+002770
X+009430Y+003993
X+008922Y+003993
T12
X+002365Y+015083
X+009176Y+003397
T13
X+001953Y+001619
X+001397Y+016044G85X+001397Y+016724
X+001397Y+017331G85X+001397Y+018011
X+001397Y+018601G85X+001397Y+019281
X+009718Y+018096G85X+009718Y+019276
X+009716Y+016041G85X+009716Y+017521
T14
X+009367Y+001889
T00
M30
