G04 DipTrace 4.0.0.5*
G04 bottom_silk_dendy_junior_remastered_rev_2.2.1.gbo*
%MOIN*%
G04 #@! TF.FileFunction,Legend,Bot*
G04 #@! TF.Part,Single*
%ADD10C,0.009843*%
%ADD119C,0.004632*%
%ADD121C,0.009264*%
%ADD124C,0.023159*%
%ADD127C,0.020071*%
%FSLAX26Y26*%
G04*
G70*
G90*
G75*
G01*
G04 BotSilk*
%LPD*%
X281275Y4181588D2*
D10*
Y4081575D1*
X193775Y4181588D2*
Y4081575D1*
X281275D2*
G02X193775Y4081575I-43750J6D01*
G01*
Y4181588D2*
G02X281275Y4181588I43750J-6D01*
G01*
X518906Y6181894D2*
X618918D1*
X518906Y6094394D2*
X618918D1*
Y6181894D2*
G02X618918Y6094394I-6J-43750D01*
G01*
X518906D2*
G02X518906Y6181894I6J43750D01*
G01*
X1781442Y6494328D2*
Y6594341D1*
X1868942Y6494328D2*
Y6594341D1*
X1781442D2*
G02X1868942Y6594341I43750J-6D01*
G01*
Y6494328D2*
G02X1781442Y6494328I-43750J6D01*
G01*
X537658Y1800184D2*
X637670D1*
X537658Y1712684D2*
X637670D1*
Y1800184D2*
G02X637670Y1712684I-6J-43750D01*
G01*
X537658D2*
G02X537658Y1800184I6J43750D01*
G01*
X3350353Y3669037D2*
X3250340D1*
X3350353Y3756537D2*
X3250340D1*
Y3669037D2*
G02X3250340Y3756537I6J43750D01*
G01*
X3350353D2*
G02X3350353Y3669037I-6J-43750D01*
G01*
X568814Y1062713D2*
Y1162725D1*
X656314Y1062713D2*
Y1162725D1*
X568814D2*
G02X656314Y1162725I43750J-6D01*
G01*
Y1062713D2*
G02X568814Y1062713I-43750J6D01*
G01*
X1956460Y1093966D2*
Y1193979D1*
X2043960Y1093966D2*
Y1193979D1*
X1956460D2*
G02X2043960Y1193979I43750J-6D01*
G01*
Y1093966D2*
G02X1956460Y1093966I-43750J6D01*
G01*
X193775Y5150642D2*
Y5250655D1*
X281275Y5150642D2*
Y5250655D1*
X193775D2*
G02X281275Y5250655I43750J-6D01*
G01*
Y5150642D2*
G02X193775Y5150642I-43750J6D01*
G01*
X324933Y1725186D2*
X224920D1*
X324933Y1812686D2*
X224920D1*
Y1725186D2*
G02X224920Y1812686I6J43750D01*
G01*
X324933D2*
G02X324933Y1725186I-6J-43750D01*
G01*
X262523Y4756853D2*
Y4656840D1*
X175023Y4756853D2*
Y4656840D1*
X262523D2*
G02X175023Y4656840I-43750J6D01*
G01*
Y4756853D2*
G02X262523Y4756853I43750J-6D01*
G01*
X3350250Y3756649D2*
X3250238D1*
X3350250Y3844149D2*
X3250238D1*
Y3756649D2*
G02X3250238Y3844149I6J43750D01*
G01*
X3350250D2*
G02X3350250Y3756649I-6J-43750D01*
G01*
X212527Y1350243D2*
Y1450256D1*
X300027Y1350243D2*
Y1450256D1*
X212527D2*
G02X300027Y1450256I43750J-6D01*
G01*
Y1350243D2*
G02X212527Y1350243I-43750J6D01*
G01*
X1868951Y1093966D2*
Y1193979D1*
X1956451Y1093966D2*
Y1193979D1*
X1868951D2*
G02X1956451Y1193979I43750J-6D01*
G01*
Y1093966D2*
G02X1868951Y1093966I-43750J6D01*
G01*
X3506614Y4562878D2*
Y4462865D1*
X3419114Y4562878D2*
Y4462865D1*
X3506614D2*
G02X3419114Y4462865I-43750J6D01*
G01*
Y4562878D2*
G02X3506614Y4562878I43750J-6D01*
G01*
X1162627Y6044495D2*
X1250127D1*
Y6194495D1*
X1162627D1*
Y6044495D1*
X968856Y6044699D2*
X1056356D1*
Y6194699D1*
X968856D1*
Y6044699D1*
X1356397Y6044495D2*
X1443897D1*
Y6194495D1*
X1356397D1*
Y6044495D1*
X1493902Y6619335D2*
X1406402D1*
Y6469335D1*
X1493902D1*
Y6619335D1*
X2256482Y6519324D2*
X2168982D1*
Y6369324D1*
X2256482D1*
Y6519324D1*
X1493911Y6469539D2*
X1581411D1*
Y6619539D1*
X1493911D1*
Y6469539D1*
X2043969Y6369529D2*
X2131469D1*
Y6519529D1*
X2043969D1*
Y6369529D1*
X2862796Y274919D2*
X2775296D1*
Y124919D1*
X2862796D1*
Y274919D1*
X2750284D2*
X2662784D1*
Y124919D1*
X2750284D1*
Y274919D1*
X2312738Y275123D2*
X2225238D1*
Y125123D1*
X2312738D1*
Y275123D1*
X2644023Y274919D2*
X2556523D1*
Y124919D1*
X2644023D1*
Y274919D1*
X2531511D2*
X2444011D1*
Y124919D1*
X2531511D1*
Y274919D1*
X2425250D2*
X2337750D1*
Y124919D1*
X2425250D1*
Y274919D1*
X925102Y6619555D2*
X1012602D1*
Y6769555D1*
X925102D1*
Y6619555D1*
X1737780Y300024D2*
X1650280D1*
Y150024D1*
X1737780D1*
Y300024D1*
X3281705Y978222D2*
Y890722D1*
X3431705D1*
Y978222D1*
X3281705D1*
X3123540Y6646853D2*
D121*
X3126392Y6652623D1*
X3135014Y6655475D1*
X3143636D1*
X3152258Y6652623D1*
X3155110Y6646853D1*
X3152258Y6641149D1*
X3146488Y6638231D1*
X3132162Y6635379D1*
X3126392Y6632527D1*
X3123540Y6626757D1*
Y6623905D1*
X3126392Y6618201D1*
X3135014Y6615283D1*
X3143636D1*
X3152258Y6618201D1*
X3155110Y6623905D1*
X3090687Y6655475D2*
X3096391Y6652623D1*
X3102161Y6646853D1*
X3105013Y6638231D1*
Y6632527D1*
X3102161Y6623905D1*
X3096391Y6618201D1*
X3090687Y6615283D1*
X3082065D1*
X3076295Y6618201D1*
X3070591Y6623905D1*
X3067673Y6632527D1*
Y6638231D1*
X3070591Y6646853D1*
X3076295Y6652623D1*
X3082065Y6655475D1*
X3090687D1*
X3049146D2*
Y6626757D1*
X3046294Y6618201D1*
X3040524Y6615283D1*
X3031902D1*
X3026198Y6618201D1*
X3017576Y6626757D1*
Y6655475D2*
Y6615283D1*
X2999049Y6655475D2*
Y6615283D1*
Y6644001D2*
X2990427Y6652623D1*
X2984657Y6655475D1*
X2976101D1*
X2970331Y6652623D1*
X2967479Y6644001D1*
Y6615283D1*
X2914530Y6675571D2*
Y6615283D1*
Y6646853D2*
X2920234Y6652623D1*
X2926004Y6655475D1*
X2934626D1*
X2940330Y6652623D1*
X2946100Y6646853D1*
X2948952Y6638231D1*
Y6632527D1*
X2946100Y6623905D1*
X2940330Y6618201D1*
X2934626Y6615283D1*
X2926004D1*
X2920234Y6618201D1*
X2914530Y6623905D1*
X2783164Y6655475D2*
X2786082D1*
X2788934Y6652557D1*
X2791786Y6646853D1*
X2797556Y6632527D1*
X2803260Y6623905D1*
X2808964Y6618135D1*
X2814734Y6615283D1*
X2826208D1*
X2831911Y6618135D1*
X2834830Y6621053D1*
X2837682Y6626757D1*
Y6632527D1*
X2834830Y6638231D1*
X2831911Y6641083D1*
X2811882Y6652557D1*
X2808964Y6655475D1*
X2806112Y6661179D1*
Y6666949D1*
X2808964Y6672653D1*
X2814734Y6675505D1*
X2820437Y6672653D1*
X2823356Y6666949D1*
Y6661179D1*
X2820437Y6652557D1*
X2814734Y6644001D1*
X2800408Y6623905D1*
X2794638Y6618135D1*
X2788934Y6615283D1*
X2783164D1*
X2706315Y6655475D2*
X2689071Y6615283D1*
X2671894Y6655475D1*
X2653367Y6675571D2*
X2650515Y6672719D1*
X2647596Y6675571D1*
X2650515Y6678489D1*
X2653367Y6675571D1*
X2650515Y6655475D2*
Y6615283D1*
X2594647Y6675571D2*
Y6615283D1*
Y6646853D2*
X2600351Y6652623D1*
X2606121Y6655475D1*
X2614743D1*
X2620447Y6652623D1*
X2626217Y6646853D1*
X2629069Y6638231D1*
Y6632527D1*
X2626217Y6623905D1*
X2620447Y6618201D1*
X2614743Y6615283D1*
X2606121D1*
X2600351Y6618201D1*
X2594647Y6623905D1*
X2576120Y6638231D2*
X2541698D1*
Y6644001D1*
X2544550Y6649771D1*
X2547402Y6652623D1*
X2553172Y6655475D1*
X2561794D1*
X2567498Y6652623D1*
X2573268Y6646853D1*
X2576120Y6638231D1*
Y6632527D1*
X2573268Y6623905D1*
X2567498Y6618201D1*
X2561794Y6615283D1*
X2553172D1*
X2547402Y6618201D1*
X2541698Y6623905D1*
X2508845Y6655475D2*
X2514549Y6652623D1*
X2520319Y6646853D1*
X2523171Y6638231D1*
Y6632527D1*
X2520319Y6623905D1*
X2514549Y6618201D1*
X2508845Y6615283D1*
X2500223D1*
X2494453Y6618201D1*
X2488749Y6623905D1*
X2485831Y6632527D1*
Y6638231D1*
X2488749Y6646853D1*
X2494453Y6652623D1*
X2500223Y6655475D1*
X2508845D1*
X3057350Y4206695D2*
D124*
X3014240Y4106215D1*
X2971295Y4206695D1*
X2924978Y4256935D2*
Y4106215D1*
X2853183Y4206695D2*
X2924978Y4134900D1*
X2896293Y4163585D2*
X2846053Y4106215D1*
X2792605Y4120640D2*
X2799735Y4113345D1*
X2792605Y4106215D1*
X2785310Y4113345D1*
X2792605Y4120640D1*
X2652771Y4185140D2*
X2667197Y4199565D1*
X2681622Y4206695D1*
X2703011D1*
X2717437Y4199565D1*
X2731696Y4185140D1*
X2738992Y4163585D1*
Y4149325D1*
X2731696Y4127770D1*
X2717437Y4113511D1*
X2703011Y4106215D1*
X2681622D1*
X2667197Y4113511D1*
X2652771Y4127770D1*
X2570639Y4206695D2*
X2584899Y4199565D1*
X2599324Y4185140D1*
X2606454Y4163585D1*
Y4149325D1*
X2599324Y4127770D1*
X2584899Y4113511D1*
X2570639Y4106215D1*
X2549084D1*
X2534659Y4113511D1*
X2520399Y4127770D1*
X2513103Y4149325D1*
Y4163585D1*
X2520399Y4185140D1*
X2534659Y4199565D1*
X2549084Y4206695D1*
X2570639D1*
X2466786D2*
Y4106215D1*
Y4178010D2*
X2445231Y4199565D1*
X2430805Y4206695D1*
X2409416D1*
X2394991Y4199565D1*
X2387861Y4178010D1*
Y4106215D1*
Y4178010D2*
X2366306Y4199565D1*
X2351880Y4206695D1*
X2330491D1*
X2316066Y4199565D1*
X2308770Y4178010D1*
Y4106215D1*
X2262452D2*
X2161972Y4256769D1*
X2029600Y4199565D2*
Y4084660D1*
X2036730Y4063271D1*
X2043859Y4055975D1*
X2058285Y4048845D1*
X2079840D1*
X2094100Y4055975D1*
X2029600Y4178010D2*
X2043859Y4192270D1*
X2058285Y4199565D1*
X2079840D1*
X2094100Y4192270D1*
X2108525Y4178010D1*
X2115655Y4156455D1*
Y4142030D1*
X2108525Y4120640D1*
X2094100Y4106215D1*
X2079840Y4099085D1*
X2058285D1*
X2043859Y4106215D1*
X2029600Y4120640D1*
X1897228Y4206695D2*
Y4106215D1*
Y4185140D2*
X1911487Y4199565D1*
X1925912Y4206695D1*
X1947302D1*
X1961727Y4199565D1*
X1975987Y4185140D1*
X1983282Y4163585D1*
Y4149325D1*
X1975987Y4127770D1*
X1961727Y4113511D1*
X1947302Y4106215D1*
X1925912D1*
X1911487Y4113511D1*
X1897228Y4127770D1*
X1850910Y4206695D2*
Y4106215D1*
Y4178010D2*
X1829355Y4199565D1*
X1814929Y4206695D1*
X1793540D1*
X1779115Y4199565D1*
X1771985Y4178010D1*
Y4106215D1*
Y4178010D2*
X1750430Y4199565D1*
X1736004Y4206695D1*
X1714615D1*
X1700190Y4199565D1*
X1692894Y4178010D1*
Y4106215D1*
X1646576Y4163585D2*
X1560522D1*
Y4178010D1*
X1567652Y4192435D1*
X1574781Y4199565D1*
X1589207Y4206695D1*
X1610762D1*
X1625021Y4199565D1*
X1639447Y4185140D1*
X1646576Y4163585D1*
Y4149325D1*
X1639447Y4127770D1*
X1625021Y4113511D1*
X1610762Y4106215D1*
X1589207D1*
X1574781Y4113511D1*
X1560522Y4127770D1*
X1514204Y4206695D2*
Y4055975D1*
Y4185140D2*
X1499779Y4199399D1*
X1485519Y4206695D1*
X1463964D1*
X1449539Y4199399D1*
X1435279Y4185140D1*
X1427984Y4163585D1*
Y4149159D1*
X1435279Y4127770D1*
X1449539Y4113345D1*
X1463964Y4106215D1*
X1485519D1*
X1499779Y4113345D1*
X1514204Y4127770D1*
X1295611Y4206695D2*
Y4106215D1*
Y4185140D2*
X1309871Y4199565D1*
X1324296Y4206695D1*
X1345685D1*
X1360111Y4199565D1*
X1374370Y4185140D1*
X1381666Y4163585D1*
Y4149325D1*
X1374370Y4127770D1*
X1360111Y4113511D1*
X1345685Y4106215D1*
X1324296D1*
X1309871Y4113511D1*
X1295611Y4127770D1*
X1163239Y4256935D2*
Y4106215D1*
Y4185140D2*
X1177498Y4199565D1*
X1191924Y4206695D1*
X1213479D1*
X1227738Y4199565D1*
X1242164Y4185140D1*
X1249293Y4163585D1*
Y4149325D1*
X1242164Y4127770D1*
X1227738Y4113511D1*
X1213479Y4106215D1*
X1191924D1*
X1177498Y4113511D1*
X1163239Y4127770D1*
X1109625Y4220954D2*
Y4228084D1*
X1102496Y4242510D1*
X1095366Y4249639D1*
X1080941Y4256769D1*
X1052256D1*
X1037996Y4249639D1*
X1030866Y4242510D1*
X1023571Y4228084D1*
Y4213825D1*
X1030866Y4199399D1*
X1045126Y4178010D1*
X1116921Y4106215D1*
X1016441D1*
X970123Y4206695D2*
Y4134900D1*
X962994Y4113511D1*
X948568Y4106215D1*
X927013D1*
X912754Y4113511D1*
X891198Y4134900D1*
Y4206695D2*
Y4106215D1*
X765956Y4185140D2*
X773086Y4199565D1*
X794641Y4206695D1*
X816196D1*
X837751Y4199565D1*
X844881Y4185140D1*
X837751Y4170880D1*
X823326Y4163585D1*
X787511Y4156455D1*
X773086Y4149325D1*
X765956Y4134900D1*
Y4127770D1*
X773086Y4113511D1*
X794641Y4106215D1*
X816196D1*
X837751Y4113511D1*
X844881Y4127770D1*
X719638Y4256935D2*
Y4106215D1*
Y4185140D2*
X705213Y4199565D1*
X690953Y4206695D1*
X669398D1*
X655138Y4199565D1*
X640713Y4185140D1*
X633583Y4163585D1*
Y4149325D1*
X640713Y4127770D1*
X655138Y4113511D1*
X669398Y4106215D1*
X690953D1*
X705213Y4113511D1*
X719638Y4127770D1*
X3187520Y6569310D2*
D121*
Y6509022D1*
Y6540592D2*
X3181750Y6546362D1*
X3176046Y6549214D1*
X3167424D1*
X3161720Y6546362D1*
X3155950Y6540592D1*
X3153098Y6531970D1*
Y6526266D1*
X3155950Y6517644D1*
X3161720Y6511940D1*
X3167424Y6509022D1*
X3176046D1*
X3181750Y6511940D1*
X3187520Y6517644D1*
X3131653Y6549214D2*
X3114475Y6509022D1*
X3120179Y6497548D1*
X3125949Y6491778D1*
X3131653Y6488926D1*
X3134571D1*
X3097231Y6549214D2*
X3114475Y6509022D1*
X3020383Y6569310D2*
Y6509022D1*
X2980191Y6569310D2*
Y6509022D1*
X3020383Y6540592D2*
X2980191D1*
X2927242Y6549214D2*
Y6509022D1*
Y6540592D2*
X2932946Y6546362D1*
X2938716Y6549214D1*
X2947272D1*
X2953042Y6546362D1*
X2958746Y6540592D1*
X2961664Y6531970D1*
Y6526266D1*
X2958746Y6517644D1*
X2953042Y6511940D1*
X2947272Y6509022D1*
X2938716D1*
X2932946Y6511940D1*
X2927242Y6517644D1*
X2908715Y6549214D2*
Y6509022D1*
Y6531970D2*
X2905797Y6540592D1*
X2900093Y6546362D1*
X2894323Y6549214D1*
X2885701D1*
X2832752Y6569310D2*
Y6509022D1*
Y6540592D2*
X2838455Y6546362D1*
X2844226Y6549214D1*
X2852848D1*
X2858551Y6546362D1*
X2864322Y6540592D1*
X2867173Y6531970D1*
Y6526266D1*
X2864322Y6517644D1*
X2858551Y6511940D1*
X2852848Y6509022D1*
X2844226D1*
X2838455Y6511940D1*
X2832752Y6517644D1*
X2814224Y6549214D2*
X2802751Y6509022D1*
X2791277Y6549214D1*
X2779803Y6509022D1*
X2768329Y6549214D1*
X2715380D2*
Y6509022D1*
Y6540592D2*
X2721084Y6546362D1*
X2726854Y6549214D1*
X2735409D1*
X2741180Y6546362D1*
X2746883Y6540592D1*
X2749802Y6531970D1*
Y6526266D1*
X2746883Y6517644D1*
X2741180Y6511940D1*
X2735409Y6509022D1*
X2726854D1*
X2721084Y6511940D1*
X2715380Y6517644D1*
X2696853Y6549214D2*
Y6509022D1*
Y6531970D2*
X2693934Y6540592D1*
X2688231Y6546362D1*
X2682460Y6549214D1*
X2673838D1*
X2655311Y6531970D2*
X2620889D1*
Y6537740D1*
X2623741Y6543510D1*
X2626593Y6546362D1*
X2632363Y6549214D1*
X2640985D1*
X2646689Y6546362D1*
X2652459Y6540592D1*
X2655311Y6531970D1*
Y6526266D1*
X2652459Y6517644D1*
X2646689Y6511940D1*
X2640985Y6509022D1*
X2632363D1*
X2626593Y6511940D1*
X2620889Y6517644D1*
X2556467Y6509022D2*
Y6569310D1*
X2579414Y6509022D1*
X2602362Y6569310D1*
Y6509022D1*
X2503518Y6549214D2*
Y6509022D1*
Y6540592D2*
X2509221Y6546362D1*
X2514991Y6549214D1*
X2523547D1*
X2529317Y6546362D1*
X2535021Y6540592D1*
X2537939Y6531970D1*
Y6526266D1*
X2535021Y6517644D1*
X2529317Y6511940D1*
X2523547Y6509022D1*
X2514991D1*
X2509221Y6511940D1*
X2503518Y6517644D1*
X2484990Y6549214D2*
Y6509022D1*
Y6537740D2*
X2476368Y6546362D1*
X2470598Y6549214D1*
X2462043D1*
X2456272Y6546362D1*
X2453420Y6537740D1*
Y6509022D1*
X2748495Y5375510D2*
D127*
X2692596D1*
X2673915Y5381833D1*
X2667592Y5388012D1*
X2661413Y5400371D1*
Y5412873D1*
X2667592Y5425231D1*
X2673915Y5431554D1*
X2692596Y5437733D1*
X2748495D1*
Y5307109D1*
X2704954Y5375510D2*
X2661413Y5307109D1*
X2621271Y5356829D2*
X2546690D1*
Y5369331D1*
X2552869Y5381833D1*
X2559048Y5388012D1*
X2571550Y5394192D1*
X2590231D1*
X2602589Y5388012D1*
X2615091Y5375510D1*
X2621271Y5356829D1*
Y5344471D1*
X2615091Y5325790D1*
X2602589Y5313432D1*
X2590231Y5307109D1*
X2571550D1*
X2559048Y5313432D1*
X2546690Y5325790D1*
X2506548Y5394192D2*
Y5307109D1*
Y5369331D2*
X2487867Y5388012D1*
X2475365Y5394192D1*
X2456827D1*
X2444325Y5388012D1*
X2438146Y5369331D1*
Y5307109D1*
Y5369331D2*
X2419465Y5388012D1*
X2406963Y5394192D1*
X2388426D1*
X2375924Y5388012D1*
X2369601Y5369331D1*
Y5307109D1*
X2254878Y5394192D2*
Y5307109D1*
Y5375510D2*
X2267236Y5388012D1*
X2279738Y5394192D1*
X2298276D1*
X2310778Y5388012D1*
X2323136Y5375510D1*
X2329459Y5356829D1*
Y5344471D1*
X2323136Y5325790D1*
X2310778Y5313432D1*
X2298276Y5307109D1*
X2279738D1*
X2267236Y5313432D1*
X2254878Y5325790D1*
X2146335Y5375510D2*
X2152514Y5388012D1*
X2171195Y5394192D1*
X2189876D1*
X2208557Y5388012D1*
X2214736Y5375510D1*
X2208557Y5363152D1*
X2196055Y5356829D1*
X2165016Y5350650D1*
X2152514Y5344471D1*
X2146335Y5331969D1*
Y5325790D1*
X2152514Y5313432D1*
X2171195Y5307109D1*
X2189876D1*
X2208557Y5313432D1*
X2214736Y5325790D1*
X2087511Y5437733D2*
Y5331969D1*
X2081332Y5313432D1*
X2068830Y5307109D1*
X2056472D1*
X2106193Y5394192D2*
X2062651D1*
X2016330Y5356829D2*
X1941749D1*
Y5369331D1*
X1947928Y5381833D1*
X1954108Y5388012D1*
X1966610Y5394192D1*
X1985291D1*
X1997649Y5388012D1*
X2010151Y5375510D1*
X2016330Y5356829D1*
Y5344471D1*
X2010151Y5325790D1*
X1997649Y5313432D1*
X1985291Y5307109D1*
X1966610D1*
X1954108Y5313432D1*
X1941749Y5325790D1*
X1901607Y5394192D2*
Y5307109D1*
Y5356829D2*
X1895284Y5375510D1*
X1882926Y5388012D1*
X1870424Y5394192D1*
X1851743D1*
X1811601Y5356829D2*
X1737020D1*
Y5369331D1*
X1743199Y5381833D1*
X1749379Y5388012D1*
X1761881Y5394192D1*
X1780562D1*
X1792920Y5388012D1*
X1805422Y5375510D1*
X1811601Y5356829D1*
Y5344471D1*
X1805422Y5325790D1*
X1792920Y5313432D1*
X1780562Y5307109D1*
X1761881D1*
X1749379Y5313432D1*
X1737020Y5325790D1*
X1622298Y5437733D2*
Y5307109D1*
Y5375510D2*
X1634656Y5388012D1*
X1647158Y5394192D1*
X1665839D1*
X1678197Y5388012D1*
X1690699Y5375510D1*
X1696878Y5356829D1*
Y5344471D1*
X1690699Y5325790D1*
X1678197Y5313432D1*
X1665839Y5307109D1*
X1647158D1*
X1634656Y5313432D1*
X1622298Y5325790D1*
X1455793Y5437733D2*
Y5307109D1*
Y5375510D2*
X1443291Y5388012D1*
X1430933Y5394192D1*
X1412252D1*
X1399893Y5388012D1*
X1387391Y5375510D1*
X1381212Y5356829D1*
Y5344471D1*
X1387391Y5325790D1*
X1399893Y5313432D1*
X1412252Y5307109D1*
X1430933D1*
X1443291Y5313432D1*
X1455793Y5325790D1*
X1334747Y5394192D2*
X1297529Y5307109D1*
X1309887Y5282249D1*
X1322389Y5269747D1*
X1334747Y5263568D1*
X1341070D1*
X1260167Y5394192D2*
X1297529Y5307109D1*
X157004Y4144443D2*
D119*
X154152Y4145869D1*
X151267Y4148754D1*
X149841Y4151606D1*
Y4157343D1*
X151267Y4160228D1*
X154152Y4163080D1*
X157004Y4164539D1*
X161315Y4165965D1*
X168511D1*
X172789Y4164539D1*
X175674Y4163080D1*
X178526Y4160228D1*
X179985Y4157343D1*
Y4151606D1*
X178526Y4148754D1*
X175674Y4145869D1*
X172789Y4144443D1*
X155611Y4135179D2*
X154152Y4132294D1*
X149874Y4127983D1*
X179985D1*
Y4104361D2*
X149874D1*
X169937Y4118720D1*
Y4097198D1*
X297220Y4191030D2*
X295761Y4188145D1*
X291483Y4183834D1*
X321594D1*
X291483Y4165948D2*
X292909Y4170259D1*
X297220Y4173144D1*
X304383Y4174570D1*
X308694D1*
X315857Y4173144D1*
X320168Y4170259D1*
X321594Y4165948D1*
Y4163096D1*
X320168Y4158785D1*
X315857Y4155933D1*
X308694Y4154474D1*
X304383D1*
X297220Y4155933D1*
X292909Y4158785D1*
X291483Y4163096D1*
Y4165948D1*
X297220Y4155933D2*
X315857Y4173144D1*
X291483Y4136589D2*
X292909Y4140900D1*
X297220Y4143785D1*
X304383Y4145211D1*
X308694D1*
X315857Y4143785D1*
X320168Y4140900D1*
X321594Y4136589D1*
Y4133737D1*
X320168Y4129426D1*
X315857Y4126574D1*
X308694Y4125115D1*
X304383D1*
X297220Y4126574D1*
X292909Y4129426D1*
X291483Y4133737D1*
Y4136589D1*
X297220Y4126574D2*
X315857Y4143785D1*
X301498Y4115851D2*
X321594D1*
X307235D2*
X302924Y4111540D1*
X301498Y4108655D1*
Y4104377D1*
X302924Y4101492D1*
X307235Y4100066D1*
X321594D1*
X291450Y4072133D2*
Y4090803D1*
X321594D1*
X305809D2*
Y4079329D1*
X580331Y6218665D2*
X581757Y6221517D1*
X584642Y6224402D1*
X587494Y6225828D1*
X593231D1*
X596116Y6224402D1*
X598968Y6221517D1*
X600427Y6218665D1*
X601853Y6214354D1*
Y6207158D1*
X600427Y6202880D1*
X598968Y6199995D1*
X596116Y6197143D1*
X593231Y6195684D1*
X587494D1*
X584642Y6197143D1*
X581757Y6199995D1*
X580331Y6202880D1*
X571068Y6220058D2*
X568183Y6221517D1*
X563871Y6225795D1*
Y6195684D1*
X537397Y6221517D2*
X538823Y6224369D1*
X543134Y6225795D1*
X545986D1*
X550297Y6224369D1*
X553182Y6220058D1*
X554608Y6212895D1*
Y6205732D1*
X553182Y6199995D1*
X550297Y6197110D1*
X545986Y6195684D1*
X544560D1*
X540282Y6197110D1*
X537397Y6199995D1*
X535971Y6204306D1*
Y6205732D1*
X537397Y6210043D1*
X540282Y6212895D1*
X544560Y6214321D1*
X545986D1*
X550297Y6212895D1*
X553182Y6210043D1*
X554608Y6205732D1*
X628361Y6078449D2*
X625476Y6079908D1*
X621165Y6084186D1*
Y6054075D1*
X603279Y6084186D2*
X607590Y6082760D1*
X610475Y6078449D1*
X611901Y6071286D1*
Y6066975D1*
X610475Y6059812D1*
X607590Y6055501D1*
X603279Y6054075D1*
X600427D1*
X596116Y6055501D1*
X593264Y6059812D1*
X591805Y6066975D1*
Y6071286D1*
X593264Y6078449D1*
X596116Y6082760D1*
X600427Y6084186D1*
X603279D1*
X593264Y6078449D2*
X610475Y6059812D1*
X573919Y6084186D2*
X578231Y6082760D1*
X581116Y6078449D1*
X582542Y6071286D1*
Y6066975D1*
X581116Y6059812D1*
X578231Y6055501D1*
X573919Y6054075D1*
X571068D1*
X566757Y6055501D1*
X563905Y6059812D1*
X562446Y6066975D1*
Y6071286D1*
X563905Y6078449D1*
X566757Y6082760D1*
X571068Y6084186D1*
X573919D1*
X563905Y6078449D2*
X581116Y6059812D1*
X553182Y6074171D2*
Y6054075D1*
Y6068434D2*
X548871Y6072745D1*
X545986Y6074171D1*
X541708D1*
X538823Y6072745D1*
X537397Y6068434D1*
Y6054075D1*
X509463Y6084219D2*
X528133D1*
Y6054075D1*
Y6069860D2*
X516660D1*
X1832799Y6678987D2*
X1834225Y6681839D1*
X1837110Y6684724D1*
X1839962Y6686150D1*
X1845699D1*
X1848584Y6684724D1*
X1851436Y6681839D1*
X1852895Y6678987D1*
X1854321Y6674676D1*
Y6667480D1*
X1852895Y6663202D1*
X1851436Y6660317D1*
X1848584Y6657465D1*
X1845699Y6656006D1*
X1839962D1*
X1837110Y6657465D1*
X1834225Y6660317D1*
X1832799Y6663202D1*
X1823535Y6680380D2*
X1820650Y6681839D1*
X1816339Y6686117D1*
Y6656006D1*
X1799913Y6686117D2*
X1804190Y6684691D1*
X1805650Y6681839D1*
Y6678954D1*
X1804190Y6676102D1*
X1801339Y6674643D1*
X1795602Y6673217D1*
X1791291Y6671791D1*
X1788439Y6668906D1*
X1787013Y6666054D1*
Y6661743D1*
X1788439Y6658891D1*
X1789865Y6657432D1*
X1794176Y6656006D1*
X1799913D1*
X1804190Y6657432D1*
X1805650Y6658891D1*
X1807076Y6661743D1*
Y6666054D1*
X1805650Y6668906D1*
X1802764Y6671791D1*
X1798487Y6673217D1*
X1792750Y6674643D1*
X1789865Y6676102D1*
X1788439Y6678954D1*
Y6681839D1*
X1789865Y6684691D1*
X1794176Y6686117D1*
X1799913D1*
X1889165Y6430353D2*
X1886280Y6431812D1*
X1881969Y6436090D1*
Y6405979D1*
X1864084Y6436090D2*
X1868395Y6434664D1*
X1871280Y6430353D1*
X1872706Y6423190D1*
Y6418879D1*
X1871280Y6411716D1*
X1868395Y6407405D1*
X1864084Y6405979D1*
X1861232D1*
X1856921Y6407405D1*
X1854069Y6411716D1*
X1852610Y6418879D1*
Y6423190D1*
X1854069Y6430353D1*
X1856921Y6434664D1*
X1861232Y6436090D1*
X1864084D1*
X1854069Y6430353D2*
X1871280Y6411716D1*
X1834724Y6436090D2*
X1839035Y6434664D1*
X1841920Y6430353D1*
X1843346Y6423190D1*
Y6418879D1*
X1841920Y6411716D1*
X1839035Y6407405D1*
X1834724Y6405979D1*
X1831872D1*
X1827561Y6407405D1*
X1824709Y6411716D1*
X1823250Y6418879D1*
Y6423190D1*
X1824709Y6430353D1*
X1827561Y6434664D1*
X1831872Y6436090D1*
X1834724D1*
X1824709Y6430353D2*
X1841920Y6411716D1*
X1813986Y6426075D2*
Y6405979D1*
Y6420338D2*
X1809675Y6424650D1*
X1806790Y6426075D1*
X1802512D1*
X1799627Y6424650D1*
X1798201Y6420338D1*
Y6405979D1*
X1770268Y6436123D2*
X1788938D1*
Y6405979D1*
Y6421764D2*
X1777464D1*
X606263Y1836955D2*
X607689Y1839807D1*
X610574Y1842692D1*
X613426Y1844118D1*
X619163D1*
X622048Y1842692D1*
X624900Y1839807D1*
X626359Y1836955D1*
X627785Y1832644D1*
Y1825448D1*
X626359Y1821170D1*
X624900Y1818285D1*
X622048Y1815433D1*
X619163Y1813974D1*
X613426D1*
X610574Y1815433D1*
X607689Y1818285D1*
X606263Y1821170D1*
X595540Y1836922D2*
Y1838348D1*
X594114Y1841233D1*
X592688Y1842659D1*
X589803Y1844085D1*
X584066D1*
X581214Y1842659D1*
X579788Y1841233D1*
X578329Y1838348D1*
Y1835496D1*
X579788Y1832611D1*
X582640Y1828333D1*
X596999Y1813974D1*
X576903D1*
X566180Y1836922D2*
Y1838348D1*
X564754Y1841233D1*
X563328Y1842659D1*
X560443Y1844085D1*
X554706D1*
X551855Y1842659D1*
X550429Y1841233D1*
X548969Y1838348D1*
Y1835496D1*
X550429Y1832611D1*
X553280Y1828333D1*
X567640Y1813974D1*
X547544D1*
X647113Y1696739D2*
X644228Y1698198D1*
X639917Y1702476D1*
Y1672365D1*
X622031Y1702476D2*
X626342Y1701050D1*
X629227Y1696739D1*
X630653Y1689576D1*
Y1685265D1*
X629227Y1678102D1*
X626342Y1673791D1*
X622031Y1672365D1*
X619179D1*
X614868Y1673791D1*
X612016Y1678102D1*
X610557Y1685265D1*
Y1689576D1*
X612016Y1696739D1*
X614868Y1701050D1*
X619179Y1702476D1*
X622031D1*
X612016Y1696739D2*
X629227Y1678102D1*
X592671Y1702476D2*
X596982Y1701050D1*
X599868Y1696739D1*
X601294Y1689576D1*
Y1685265D1*
X599868Y1678102D1*
X596982Y1673791D1*
X592671Y1672365D1*
X589820D1*
X585509Y1673791D1*
X582657Y1678102D1*
X581198Y1685265D1*
Y1689576D1*
X582657Y1696739D1*
X585509Y1701050D1*
X589820Y1702476D1*
X592671D1*
X582657Y1696739D2*
X599868Y1678102D1*
X571934Y1692461D2*
Y1672365D1*
Y1686724D2*
X567623Y1691035D1*
X564738Y1692461D1*
X560460D1*
X557575Y1691035D1*
X556149Y1686724D1*
Y1672365D1*
X528215Y1702509D2*
X546885D1*
Y1672365D1*
Y1688150D2*
X535411D1*
X3419843Y3731382D2*
X3416991Y3732808D1*
X3414106Y3735693D1*
X3412680Y3738545D1*
Y3744282D1*
X3414106Y3747167D1*
X3416991Y3750019D1*
X3419843Y3751478D1*
X3424154Y3752904D1*
X3431350D1*
X3435628Y3751478D1*
X3438513Y3750019D1*
X3441365Y3747167D1*
X3442824Y3744282D1*
Y3738545D1*
X3441365Y3735693D1*
X3438513Y3732808D1*
X3435628Y3731382D1*
X3419876Y3720659D2*
X3418450D1*
X3415565Y3719233D1*
X3414139Y3717807D1*
X3412713Y3714922D1*
Y3709185D1*
X3414139Y3706334D1*
X3415565Y3704908D1*
X3418450Y3703448D1*
X3421302D1*
X3424187Y3704908D1*
X3428465Y3707759D1*
X3442824Y3722118D1*
Y3702022D1*
X3412713Y3689874D2*
Y3674122D1*
X3424187Y3682711D1*
Y3678400D1*
X3425613Y3675548D1*
X3427039Y3674122D1*
X3431350Y3672663D1*
X3434202D1*
X3438513Y3674122D1*
X3441398Y3676974D1*
X3442824Y3681285D1*
Y3685596D1*
X3441398Y3689874D1*
X3439939Y3691300D1*
X3437087Y3692759D1*
X3359795Y3653092D2*
X3356910Y3654551D1*
X3352599Y3658829D1*
Y3628718D1*
X3334713Y3658829D2*
X3339024Y3657403D1*
X3341910Y3653092D1*
X3343335Y3645929D1*
Y3641618D1*
X3341910Y3634455D1*
X3339024Y3630144D1*
X3334713Y3628718D1*
X3331862D1*
X3327550Y3630144D1*
X3324699Y3634455D1*
X3323239Y3641618D1*
Y3645929D1*
X3324699Y3653092D1*
X3327550Y3657403D1*
X3331862Y3658829D1*
X3334713D1*
X3324699Y3653092D2*
X3341910Y3634455D1*
X3305354Y3658829D2*
X3309665Y3657403D1*
X3312550Y3653092D1*
X3313976Y3645929D1*
Y3641618D1*
X3312550Y3634455D1*
X3309665Y3630144D1*
X3305354Y3628718D1*
X3302502D1*
X3298191Y3630144D1*
X3295339Y3634455D1*
X3293880Y3641618D1*
Y3645929D1*
X3295339Y3653092D1*
X3298191Y3657403D1*
X3302502Y3658829D1*
X3305354D1*
X3295339Y3653092D2*
X3312550Y3634455D1*
X3284616Y3648814D2*
Y3628718D1*
Y3643077D2*
X3280305Y3647388D1*
X3277420Y3648814D1*
X3273142D1*
X3270257Y3647388D1*
X3268831Y3643077D1*
Y3628718D1*
X3240898Y3658862D2*
X3259568D1*
Y3628718D1*
Y3644503D2*
X3248094D1*
X532043Y1130588D2*
X529191Y1132014D1*
X526306Y1134899D1*
X524880Y1137751D1*
Y1143488D1*
X526306Y1146373D1*
X529191Y1149225D1*
X532043Y1150684D1*
X536354Y1152110D1*
X543551D1*
X547828Y1150684D1*
X550713Y1149225D1*
X553565Y1146373D1*
X555024Y1143488D1*
Y1137751D1*
X553565Y1134899D1*
X550713Y1132014D1*
X547828Y1130588D1*
X532077Y1119866D2*
X530651D1*
X527766Y1118440D1*
X526340Y1117014D1*
X524914Y1114129D1*
Y1108392D1*
X526340Y1105540D1*
X527766Y1104114D1*
X530651Y1102655D1*
X533503D1*
X536388Y1104114D1*
X540665Y1106966D1*
X555024Y1121325D1*
Y1101229D1*
X529191Y1074754D2*
X526340Y1076180D1*
X524914Y1080491D1*
Y1083343D1*
X526340Y1087654D1*
X530651Y1090539D1*
X537814Y1091965D1*
X544976D1*
X550713Y1090539D1*
X553599Y1087654D1*
X555024Y1083343D1*
Y1081917D1*
X553599Y1077639D1*
X550713Y1074754D1*
X546402Y1073328D1*
X544976D1*
X540665Y1074754D1*
X537814Y1077639D1*
X536388Y1081917D1*
Y1083343D1*
X537814Y1087654D1*
X540665Y1090539D1*
X544976Y1091965D1*
X672260Y1172168D2*
X670801Y1169283D1*
X666523Y1164972D1*
X696634D1*
X666523Y1147086D2*
X667949Y1151397D1*
X672260Y1154282D1*
X679423Y1155708D1*
X683734D1*
X690897Y1154282D1*
X695208Y1151397D1*
X696634Y1147086D1*
Y1144234D1*
X695208Y1139923D1*
X690897Y1137071D1*
X683734Y1135612D1*
X679423D1*
X672260Y1137071D1*
X667949Y1139923D1*
X666523Y1144234D1*
Y1147086D1*
X672260Y1137071D2*
X690897Y1154282D1*
X666523Y1117727D2*
X667949Y1122038D1*
X672260Y1124923D1*
X679423Y1126349D1*
X683734D1*
X690897Y1124923D1*
X695208Y1122038D1*
X696634Y1117727D1*
Y1114875D1*
X695208Y1110564D1*
X690897Y1107712D1*
X683734Y1106253D1*
X679423D1*
X672260Y1107712D1*
X667949Y1110564D1*
X666523Y1114875D1*
Y1117727D1*
X672260Y1107712D2*
X690897Y1124923D1*
X676538Y1096989D2*
X696634D1*
X682274D2*
X677963Y1092678D1*
X676538Y1089793D1*
Y1085515D1*
X677963Y1082630D1*
X682274Y1081204D1*
X696634D1*
X666490Y1053271D2*
Y1071941D1*
X696634D1*
X680849D2*
Y1060467D1*
X2025063Y1280753D2*
X2026489Y1283605D1*
X2029374Y1286490D1*
X2032226Y1287916D1*
X2037963D1*
X2040848Y1286490D1*
X2043700Y1283605D1*
X2045159Y1280753D1*
X2046585Y1276442D1*
Y1269246D1*
X2045159Y1264968D1*
X2043700Y1262083D1*
X2040848Y1259231D1*
X2037963Y1257772D1*
X2032226D1*
X2029374Y1259231D1*
X2026489Y1262083D1*
X2025063Y1264968D1*
X2014340Y1280720D2*
Y1282146D1*
X2012915Y1285031D1*
X2011489Y1286457D1*
X2008603Y1287883D1*
X2002867D1*
X2000015Y1286457D1*
X1998589Y1285031D1*
X1997130Y1282146D1*
Y1279294D1*
X1998589Y1276409D1*
X2001441Y1272131D1*
X2015800Y1257772D1*
X1995704D1*
X1980703D2*
X1966344Y1287883D1*
X1986440D1*
X2078407Y1032120D2*
X2075522Y1033579D1*
X2071211Y1037857D1*
Y1007746D1*
X2053325Y1037857D2*
X2057636Y1036431D1*
X2060521Y1032120D1*
X2061947Y1024957D1*
Y1020646D1*
X2060521Y1013483D1*
X2057636Y1009172D1*
X2053325Y1007746D1*
X2050473D1*
X2046162Y1009172D1*
X2043310Y1013483D1*
X2041851Y1020646D1*
Y1024957D1*
X2043310Y1032120D1*
X2046162Y1036431D1*
X2050473Y1037857D1*
X2053325D1*
X2043310Y1032120D2*
X2060521Y1013483D1*
X2023965Y1037857D2*
X2028276Y1036431D1*
X2031162Y1032120D1*
X2032587Y1024957D1*
Y1020646D1*
X2031162Y1013483D1*
X2028276Y1009172D1*
X2023965Y1007746D1*
X2021114D1*
X2016802Y1009172D1*
X2013951Y1013483D1*
X2012491Y1020646D1*
Y1024957D1*
X2013951Y1032120D1*
X2016802Y1036431D1*
X2021114Y1037857D1*
X2023965D1*
X2013951Y1032120D2*
X2031162Y1013483D1*
X2003228Y1027842D2*
Y1007746D1*
Y1022105D2*
X1998917Y1026416D1*
X1996032Y1027842D1*
X1991754D1*
X1988869Y1026416D1*
X1987443Y1022105D1*
Y1007746D1*
X1959509Y1037890D2*
X1978179D1*
Y1007746D1*
Y1023531D2*
X1966705D1*
X157004Y5212797D2*
X154152Y5214223D1*
X151267Y5217108D1*
X149841Y5219960D1*
Y5225697D1*
X151267Y5228582D1*
X154152Y5231434D1*
X157004Y5232893D1*
X161315Y5234319D1*
X168511D1*
X172789Y5232893D1*
X175674Y5231434D1*
X178526Y5228582D1*
X179985Y5225697D1*
Y5219960D1*
X178526Y5217108D1*
X175674Y5214223D1*
X172789Y5212797D1*
X149874Y5200648D2*
Y5184896D1*
X161348Y5193485D1*
Y5189174D1*
X162774Y5186322D1*
X164200Y5184896D1*
X168511Y5183437D1*
X171363D1*
X175674Y5184896D1*
X178559Y5187748D1*
X179985Y5192059D1*
Y5196370D1*
X178559Y5200648D1*
X177100Y5202074D1*
X174248Y5203533D1*
X155611Y5174174D2*
X154152Y5171289D1*
X149874Y5166978D1*
X179985D1*
X297220Y5260097D2*
X295761Y5257212D1*
X291483Y5252901D1*
X321594D1*
X291483Y5235015D2*
X292909Y5239326D1*
X297220Y5242211D1*
X304383Y5243637D1*
X308694D1*
X315857Y5242211D1*
X320168Y5239326D1*
X321594Y5235015D1*
Y5232163D1*
X320168Y5227852D1*
X315857Y5225000D1*
X308694Y5223541D1*
X304383D1*
X297220Y5225000D1*
X292909Y5227852D1*
X291483Y5232163D1*
Y5235015D1*
X297220Y5225000D2*
X315857Y5242211D1*
X291483Y5205656D2*
X292909Y5209967D1*
X297220Y5212852D1*
X304383Y5214278D1*
X308694D1*
X315857Y5212852D1*
X320168Y5209967D1*
X321594Y5205656D1*
Y5202804D1*
X320168Y5198493D1*
X315857Y5195641D1*
X308694Y5194182D1*
X304383D1*
X297220Y5195641D1*
X292909Y5198493D1*
X291483Y5202804D1*
Y5205656D1*
X297220Y5195641D2*
X315857Y5212852D1*
X301498Y5184918D2*
X321594D1*
X307235D2*
X302924Y5180607D1*
X301498Y5177722D1*
Y5173444D1*
X302924Y5170559D1*
X307235Y5169133D1*
X321594D1*
X291450Y5141200D2*
Y5159870D1*
X321594D1*
X305809D2*
Y5148396D1*
X293525Y1849457D2*
X294951Y1852309D1*
X297836Y1855194D1*
X300688Y1856620D1*
X306425D1*
X309310Y1855194D1*
X312162Y1852309D1*
X313621Y1849457D1*
X315047Y1845146D1*
Y1837949D1*
X313621Y1833672D1*
X312162Y1830787D1*
X309310Y1827935D1*
X306425Y1826476D1*
X300688D1*
X297836Y1827935D1*
X294951Y1830787D1*
X293525Y1833672D1*
X281376Y1856586D2*
X265625D1*
X274214Y1845112D1*
X269903D1*
X267051Y1843686D1*
X265625Y1842261D1*
X264166Y1837949D1*
Y1835098D1*
X265625Y1830787D1*
X268477Y1827901D1*
X272788Y1826476D1*
X277099D1*
X281376Y1827901D1*
X282802Y1829361D1*
X284262Y1832213D1*
X252017Y1856586D2*
X236265D1*
X244854Y1845112D1*
X240543D1*
X237691Y1843686D1*
X236265Y1842261D1*
X234806Y1837949D1*
Y1835098D1*
X236265Y1830787D1*
X239117Y1827901D1*
X243428Y1826476D1*
X247739D1*
X252017Y1827901D1*
X253443Y1829361D1*
X254902Y1832213D1*
X334375Y1709240D2*
X331490Y1710699D1*
X327179Y1714977D1*
Y1684866D1*
X309293Y1714977D2*
X313605Y1713551D1*
X316490Y1709240D1*
X317916Y1702077D1*
Y1697766D1*
X316490Y1690603D1*
X313605Y1686292D1*
X309293Y1684866D1*
X306442D1*
X302131Y1686292D1*
X299279Y1690603D1*
X297820Y1697766D1*
Y1702077D1*
X299279Y1709240D1*
X302131Y1713551D1*
X306442Y1714977D1*
X309293D1*
X299279Y1709240D2*
X316490Y1690603D1*
X279934Y1714977D2*
X284245Y1713551D1*
X287130Y1709240D1*
X288556Y1702077D1*
Y1697766D1*
X287130Y1690603D1*
X284245Y1686292D1*
X279934Y1684866D1*
X277082D1*
X272771Y1686292D1*
X269919Y1690603D1*
X268460Y1697766D1*
Y1702077D1*
X269919Y1709240D1*
X272771Y1713551D1*
X277082Y1714977D1*
X279934D1*
X269919Y1709240D2*
X287130Y1690603D1*
X259196Y1704962D2*
Y1684866D1*
Y1699226D2*
X254885Y1703537D1*
X252000Y1704962D1*
X247722D1*
X244837Y1703537D1*
X243411Y1699226D1*
Y1684866D1*
X215478Y1715010D2*
X234148D1*
Y1684866D1*
Y1700651D2*
X222674D1*
X138252Y4724732D2*
X135400Y4726158D1*
X132515Y4729043D1*
X131089Y4731895D1*
Y4737632D1*
X132515Y4740517D1*
X135400Y4743369D1*
X138252Y4744828D1*
X142563Y4746254D1*
X149759D1*
X154037Y4744828D1*
X156922Y4743369D1*
X159774Y4740517D1*
X161233Y4737632D1*
Y4731895D1*
X159774Y4729043D1*
X156922Y4726158D1*
X154037Y4724732D1*
X131122Y4712583D2*
Y4696832D1*
X142596Y4705421D1*
Y4701109D1*
X144022Y4698258D1*
X145448Y4696832D1*
X149759Y4695373D1*
X152611D1*
X156922Y4696832D1*
X159807Y4699684D1*
X161233Y4703995D1*
Y4708306D1*
X159807Y4712583D1*
X158348Y4714009D1*
X155496Y4715469D1*
X141137Y4667439D2*
X145448Y4668898D1*
X148333Y4671750D1*
X149759Y4676061D1*
Y4677487D1*
X148333Y4681798D1*
X145448Y4684650D1*
X141137Y4686109D1*
X139711D1*
X135400Y4684650D1*
X132548Y4681798D1*
X131122Y4677487D1*
Y4676061D1*
X132548Y4671750D1*
X135400Y4668898D1*
X141137Y4667439D1*
X148333D1*
X155496Y4668898D1*
X159807Y4671750D1*
X161233Y4676061D1*
Y4678913D1*
X159807Y4683224D1*
X156922Y4684650D1*
X287057Y4779516D2*
Y4766616D1*
X285598Y4762305D1*
X284172Y4760846D1*
X281320Y4759420D1*
X278435D1*
X275583Y4760846D1*
X274124Y4762305D1*
X272698Y4766616D1*
Y4779516D1*
X302842D1*
X287057Y4769468D2*
X302842Y4759420D1*
X291368Y4750156D2*
Y4732945D1*
X288483D1*
X285598Y4734371D1*
X284172Y4735797D1*
X282746Y4738682D1*
Y4742993D1*
X284172Y4745845D1*
X287057Y4748730D1*
X291368Y4750156D1*
X294220D1*
X298531Y4748730D1*
X301383Y4745845D1*
X302842Y4742993D1*
Y4738682D1*
X301383Y4735797D1*
X298531Y4732945D1*
X287057Y4707897D2*
X284172Y4709323D1*
X282746Y4713634D1*
Y4717945D1*
X284172Y4722256D1*
X287057Y4723682D1*
X289909Y4722256D1*
X291368Y4719371D1*
X292794Y4712208D1*
X294220Y4709323D1*
X297105Y4707897D1*
X298531D1*
X301383Y4709323D1*
X302842Y4713634D1*
Y4717945D1*
X301383Y4722256D1*
X298531Y4723682D1*
X291368Y4698633D2*
Y4681422D1*
X288483D1*
X285598Y4682848D1*
X284172Y4684274D1*
X282746Y4687159D1*
Y4691470D1*
X284172Y4694322D1*
X287057Y4697207D1*
X291368Y4698633D1*
X294220D1*
X298531Y4697207D1*
X301383Y4694322D1*
X302842Y4691470D1*
Y4687159D1*
X301383Y4684274D1*
X298531Y4681422D1*
X282746Y4672159D2*
X302842D1*
X291368D2*
X287057Y4670700D1*
X284172Y4667848D1*
X282746Y4664963D1*
Y4660652D1*
Y4651388D2*
X302842Y4642766D1*
X282746Y4634177D1*
X3419739Y3819707D2*
X3416887Y3821133D1*
X3414002Y3824018D1*
X3412576Y3826869D1*
Y3832606D1*
X3414002Y3835492D1*
X3416887Y3838343D1*
X3419739Y3839803D1*
X3424050Y3841229D1*
X3431246D1*
X3435524Y3839803D1*
X3438409Y3838343D1*
X3441261Y3835492D1*
X3442720Y3832606D1*
Y3826869D1*
X3441261Y3824018D1*
X3438409Y3821133D1*
X3435524Y3819707D1*
X3442720Y3796084D2*
X3412609D1*
X3432672Y3810443D1*
Y3788921D1*
X3412609Y3771035D2*
X3414035Y3775346D1*
X3418346Y3778232D1*
X3425509Y3779658D1*
X3429820D1*
X3436983Y3778232D1*
X3441294Y3775346D1*
X3442720Y3771035D1*
Y3768184D1*
X3441294Y3763873D1*
X3436983Y3761021D1*
X3429820Y3759562D1*
X3425509D1*
X3418346Y3761021D1*
X3414035Y3763873D1*
X3412609Y3768184D1*
Y3771035D1*
X3418346Y3761021D2*
X3436983Y3778232D1*
X3372913Y3875880D2*
X3360014D1*
X3355702Y3877339D1*
X3354243Y3878765D1*
X3352817Y3881617D1*
Y3884502D1*
X3354243Y3887354D1*
X3355702Y3888813D1*
X3360014Y3890239D1*
X3372913D1*
Y3860095D1*
X3362865Y3875880D2*
X3352817Y3860095D1*
X3343554Y3871569D2*
X3326343D1*
Y3874454D1*
X3327769Y3877339D1*
X3329195Y3878765D1*
X3332080Y3880191D1*
X3336391D1*
X3339243Y3878765D1*
X3342128Y3875880D1*
X3343554Y3871569D1*
Y3868717D1*
X3342128Y3864406D1*
X3339243Y3861554D1*
X3336391Y3860095D1*
X3332080D1*
X3329195Y3861554D1*
X3326343Y3864406D1*
X3301294Y3875880D2*
X3302720Y3878765D1*
X3307031Y3880191D1*
X3311342D1*
X3315653Y3878765D1*
X3317079Y3875880D1*
X3315653Y3873028D1*
X3312768Y3871569D1*
X3305605Y3870143D1*
X3302720Y3868717D1*
X3301294Y3865832D1*
Y3864406D1*
X3302720Y3861554D1*
X3307031Y3860095D1*
X3311342D1*
X3315653Y3861554D1*
X3317079Y3864406D1*
X3292031Y3871569D2*
X3274820D1*
Y3874454D1*
X3276246Y3877339D1*
X3277672Y3878765D1*
X3280557Y3880191D1*
X3284868D1*
X3287720Y3878765D1*
X3290605Y3875880D1*
X3292031Y3871569D1*
Y3868717D1*
X3290605Y3864406D1*
X3287720Y3861554D1*
X3284868Y3860095D1*
X3280557D1*
X3277672Y3861554D1*
X3274820Y3864406D1*
X3265556Y3880191D2*
Y3860095D1*
Y3871569D2*
X3264097Y3875880D1*
X3261245Y3878765D1*
X3258360Y3880191D1*
X3254049D1*
X3244786D2*
X3236164Y3860095D1*
X3227575Y3880191D1*
X175756Y1413111D2*
X172904Y1414537D1*
X170019Y1417422D1*
X168593Y1420274D1*
Y1426011D1*
X170019Y1428896D1*
X172904Y1431748D1*
X175756Y1433207D1*
X180067Y1434633D1*
X187263D1*
X191541Y1433207D1*
X194426Y1431748D1*
X197278Y1428896D1*
X198737Y1426011D1*
Y1420274D1*
X197278Y1417422D1*
X194426Y1414537D1*
X191541Y1413111D1*
X198737Y1389488D2*
X168626D1*
X188689Y1403847D1*
Y1382325D1*
X174363Y1373062D2*
X172904Y1370177D1*
X168626Y1365866D1*
X198737D1*
X324561Y1472919D2*
Y1460019D1*
X323102Y1455708D1*
X321676Y1454249D1*
X318824Y1452823D1*
X315939D1*
X313087Y1454249D1*
X311628Y1455708D1*
X310202Y1460019D1*
Y1472919D1*
X340346D1*
X324561Y1462871D2*
X340346Y1452823D1*
X328872Y1443559D2*
Y1426348D1*
X325987D1*
X323102Y1427774D1*
X321676Y1429200D1*
X320250Y1432085D1*
Y1436396D1*
X321676Y1439248D1*
X324561Y1442133D1*
X328872Y1443559D1*
X331724D1*
X336035Y1442133D1*
X338887Y1439248D1*
X340346Y1436396D1*
Y1432085D1*
X338887Y1429200D1*
X336035Y1426348D1*
X324561Y1401300D2*
X321676Y1402726D1*
X320250Y1407037D1*
Y1411348D1*
X321676Y1415659D1*
X324561Y1417085D1*
X327413Y1415659D1*
X328872Y1412774D1*
X330298Y1405611D1*
X331724Y1402726D1*
X334609Y1401300D1*
X336035D1*
X338887Y1402726D1*
X340346Y1407037D1*
Y1411348D1*
X338887Y1415659D1*
X336035Y1417085D1*
X328872Y1392036D2*
Y1374825D1*
X325987D1*
X323102Y1376251D1*
X321676Y1377677D1*
X320250Y1380562D1*
Y1384873D1*
X321676Y1387725D1*
X324561Y1390610D1*
X328872Y1392036D1*
X331724D1*
X336035Y1390610D1*
X338887Y1387725D1*
X340346Y1384873D1*
Y1380562D1*
X338887Y1377677D1*
X336035Y1374825D1*
X320250Y1365562D2*
X340346D1*
X328872D2*
X324561Y1364103D1*
X321676Y1361251D1*
X320250Y1358366D1*
Y1354055D1*
Y1344791D2*
X340346Y1336169D1*
X320250Y1327580D1*
X1925766Y1280753D2*
X1927192Y1283605D1*
X1930077Y1286490D1*
X1932929Y1287916D1*
X1938666D1*
X1941551Y1286490D1*
X1944403Y1283605D1*
X1945862Y1280753D1*
X1947288Y1276442D1*
Y1269246D1*
X1945862Y1264968D1*
X1944403Y1262083D1*
X1941551Y1259231D1*
X1938666Y1257772D1*
X1932929D1*
X1930077Y1259231D1*
X1927192Y1262083D1*
X1925766Y1264968D1*
X1902143Y1257772D2*
Y1287883D1*
X1916502Y1267820D1*
X1894980D1*
X1884257Y1280720D2*
Y1282146D1*
X1882831Y1285031D1*
X1881406Y1286457D1*
X1878520Y1287883D1*
X1872783D1*
X1869932Y1286457D1*
X1868506Y1285031D1*
X1867047Y1282146D1*
Y1279294D1*
X1868506Y1276409D1*
X1871358Y1272131D1*
X1885717Y1257772D1*
X1865621D1*
X1833116Y1210391D2*
Y1197491D1*
X1831657Y1193180D1*
X1830231Y1191721D1*
X1827379Y1190295D1*
X1824494D1*
X1821642Y1191721D1*
X1820183Y1193180D1*
X1818757Y1197491D1*
Y1210391D1*
X1848901D1*
X1833116Y1200343D2*
X1848901Y1190295D1*
X1837427Y1181032D2*
Y1163821D1*
X1834542D1*
X1831657Y1165247D1*
X1830231Y1166673D1*
X1828805Y1169558D1*
Y1173869D1*
X1830231Y1176721D1*
X1833116Y1179606D1*
X1837427Y1181032D1*
X1840279D1*
X1844590Y1179606D1*
X1847442Y1176721D1*
X1848901Y1173869D1*
Y1169558D1*
X1847442Y1166673D1*
X1844590Y1163821D1*
X1833116Y1138772D2*
X1830231Y1140198D1*
X1828805Y1144509D1*
Y1148820D1*
X1830231Y1153131D1*
X1833116Y1154557D1*
X1835968Y1153131D1*
X1837427Y1150246D1*
X1838853Y1143083D1*
X1840279Y1140198D1*
X1843164Y1138772D1*
X1844590D1*
X1847442Y1140198D1*
X1848901Y1144509D1*
Y1148820D1*
X1847442Y1153131D1*
X1844590Y1154557D1*
X1837427Y1129509D2*
Y1112298D1*
X1834542D1*
X1831657Y1113724D1*
X1830231Y1115150D1*
X1828805Y1118035D1*
Y1122346D1*
X1830231Y1125198D1*
X1833116Y1128083D1*
X1837427Y1129509D1*
X1840279D1*
X1844590Y1128083D1*
X1847442Y1125198D1*
X1848901Y1122346D1*
Y1118035D1*
X1847442Y1115150D1*
X1844590Y1112298D1*
X1828805Y1103034D2*
X1848901D1*
X1837427D2*
X1833116Y1101575D1*
X1830231Y1098723D1*
X1828805Y1095838D1*
Y1091527D1*
Y1082263D2*
X1848901Y1073641D1*
X1828805Y1065052D1*
X3532348Y4532179D2*
X3529496Y4533605D1*
X3526611Y4536490D1*
X3525185Y4539342D1*
Y4545079D1*
X3526611Y4547964D1*
X3529496Y4550816D1*
X3532348Y4552275D1*
X3536659Y4553701D1*
X3543855D1*
X3548133Y4552275D1*
X3551018Y4550816D1*
X3553870Y4547964D1*
X3555329Y4545079D1*
Y4539342D1*
X3553870Y4536490D1*
X3551018Y4533605D1*
X3548133Y4532179D1*
X3555329Y4508556D2*
X3525218D1*
X3545281Y4522915D1*
Y4501393D1*
X3525218Y4489245D2*
Y4473493D1*
X3536692Y4482082D1*
Y4477771D1*
X3538118Y4474919D1*
X3539544Y4473493D1*
X3543855Y4472034D1*
X3546707D1*
X3551018Y4473493D1*
X3553903Y4476345D1*
X3555329Y4480656D1*
Y4484967D1*
X3553903Y4489245D1*
X3552444Y4490671D1*
X3549592Y4492130D1*
X3383284Y4579301D2*
Y4566401D1*
X3381825Y4562090D1*
X3380399Y4560631D1*
X3377547Y4559205D1*
X3374662D1*
X3371810Y4560631D1*
X3370351Y4562090D1*
X3368925Y4566401D1*
Y4579301D1*
X3399069D1*
X3383284Y4569253D2*
X3399069Y4559205D1*
X3387595Y4549941D2*
Y4532730D1*
X3384710D1*
X3381825Y4534156D1*
X3380399Y4535582D1*
X3378973Y4538467D1*
Y4542778D1*
X3380399Y4545630D1*
X3383284Y4548515D1*
X3387595Y4549941D1*
X3390447D1*
X3394758Y4548515D1*
X3397610Y4545630D1*
X3399069Y4542778D1*
Y4538467D1*
X3397610Y4535582D1*
X3394758Y4532730D1*
X3383284Y4507682D2*
X3380399Y4509107D1*
X3378973Y4513419D1*
Y4517730D1*
X3380399Y4522041D1*
X3383284Y4523467D1*
X3386136Y4522041D1*
X3387595Y4519155D1*
X3389021Y4511993D1*
X3390447Y4509107D1*
X3393332Y4507682D1*
X3394758D1*
X3397610Y4509107D1*
X3399069Y4513419D1*
Y4517730D1*
X3397610Y4522041D1*
X3394758Y4523467D1*
X3387595Y4498418D2*
Y4481207D1*
X3384710D1*
X3381825Y4482633D1*
X3380399Y4484059D1*
X3378973Y4486944D1*
Y4491255D1*
X3380399Y4494107D1*
X3383284Y4496992D1*
X3387595Y4498418D1*
X3390447D1*
X3394758Y4496992D1*
X3397610Y4494107D1*
X3399069Y4491255D1*
Y4486944D1*
X3397610Y4484059D1*
X3394758Y4481207D1*
X3378973Y4471944D2*
X3399069D1*
X3387595D2*
X3383284Y4470484D1*
X3380399Y4467632D1*
X3378973Y4464747D1*
Y4460436D1*
Y4451173D2*
X3399069Y4442551D1*
X3378973Y4433962D1*
X1231104Y6224070D2*
X1218205D1*
X1213893Y6225529D1*
X1212434Y6226955D1*
X1211008Y6229807D1*
Y6232692D1*
X1212434Y6235544D1*
X1213893Y6237003D1*
X1218205Y6238429D1*
X1231104D1*
Y6208285D1*
X1221056Y6224070D2*
X1211008Y6208285D1*
X1184534Y6238395D2*
X1198860D1*
X1200286Y6225496D1*
X1198860Y6226921D1*
X1194549Y6228381D1*
X1190271D1*
X1185960Y6226921D1*
X1183075Y6224070D1*
X1181649Y6219759D1*
Y6216907D1*
X1183075Y6212596D1*
X1185960Y6209711D1*
X1190271Y6208285D1*
X1194549D1*
X1198860Y6209711D1*
X1200286Y6211170D1*
X1201745Y6214022D1*
X1240047Y5997925D2*
X1225688Y6028036D1*
X1245784D1*
X1199214D2*
X1213540D1*
X1214966Y6015136D1*
X1213540Y6016562D1*
X1209229Y6018021D1*
X1204951D1*
X1200640Y6016562D1*
X1197755Y6013710D1*
X1196329Y6009399D1*
Y6006547D1*
X1197755Y6002236D1*
X1200640Y5999351D1*
X1204951Y5997925D1*
X1209229D1*
X1213540Y5999351D1*
X1214966Y6000810D1*
X1216425Y6003662D1*
X1187065Y6013710D2*
X1174165D1*
X1169854Y6015169D1*
X1168395Y6016595D1*
X1166969Y6019447D1*
Y6022332D1*
X1168395Y6025184D1*
X1169854Y6026643D1*
X1174165Y6028069D1*
X1187065D1*
Y5997925D1*
X1177017Y6013710D2*
X1166969Y5997925D1*
X1036605Y6224274D2*
X1023705D1*
X1019394Y6225733D1*
X1017934Y6227159D1*
X1016509Y6230011D1*
Y6232896D1*
X1017934Y6235748D1*
X1019394Y6237207D1*
X1023705Y6238633D1*
X1036605D1*
Y6208489D1*
X1026557Y6224274D2*
X1016509Y6208489D1*
X990034Y6234322D2*
X991460Y6237174D1*
X995771Y6238600D1*
X998623D1*
X1002934Y6237174D1*
X1005819Y6232863D1*
X1007245Y6225700D1*
Y6218537D1*
X1005819Y6212800D1*
X1002934Y6209915D1*
X998623Y6208489D1*
X997197D1*
X992919Y6209915D1*
X990034Y6212800D1*
X988608Y6217111D1*
Y6218537D1*
X990034Y6222848D1*
X992919Y6225700D1*
X997197Y6227126D1*
X998623D1*
X1002934Y6225700D1*
X1005819Y6222848D1*
X1007245Y6218537D1*
X1046277Y5998130D2*
X1031918Y6028240D1*
X1052014D1*
X1005443D2*
X1019769D1*
X1021195Y6015341D1*
X1019769Y6016766D1*
X1015458Y6018226D1*
X1011180D1*
X1006869Y6016766D1*
X1003984Y6013915D1*
X1002558Y6009604D1*
Y6006752D1*
X1003984Y6002441D1*
X1006869Y5999556D1*
X1011180Y5998130D1*
X1015458D1*
X1019769Y5999556D1*
X1021195Y6001015D1*
X1022654Y6003867D1*
X993295Y6013915D2*
X980395D1*
X976084Y6015374D1*
X974625Y6016800D1*
X973199Y6019652D1*
Y6022537D1*
X974625Y6025389D1*
X976084Y6026848D1*
X980395Y6028274D1*
X993295D1*
Y5998130D1*
X983247Y6013915D2*
X973199Y5998130D1*
X1424875Y6224070D2*
X1411975D1*
X1407664Y6225529D1*
X1406205Y6226955D1*
X1404779Y6229807D1*
Y6232692D1*
X1406205Y6235544D1*
X1407664Y6237003D1*
X1411975Y6238429D1*
X1424875D1*
Y6208285D1*
X1414827Y6224070D2*
X1404779Y6208285D1*
X1389778D2*
X1375419Y6238395D1*
X1395515D1*
X1444185Y6020881D2*
Y6022307D1*
X1442760Y6025192D1*
X1441334Y6026618D1*
X1438448Y6028044D1*
X1432712D1*
X1429860Y6026618D1*
X1428434Y6025192D1*
X1426975Y6022307D1*
Y6019455D1*
X1428434Y6016570D1*
X1431286Y6012292D1*
X1445645Y5997933D1*
X1425549D1*
X1414859Y6000818D2*
X1416285Y5999359D1*
X1414859Y5997933D1*
X1413400Y5999359D1*
X1414859Y6000818D1*
X1402677Y6020881D2*
Y6022307D1*
X1401251Y6025192D1*
X1399825Y6026618D1*
X1396940Y6028044D1*
X1391203D1*
X1388351Y6026618D1*
X1386925Y6025192D1*
X1385466Y6022307D1*
Y6019455D1*
X1386925Y6016570D1*
X1389777Y6012292D1*
X1404136Y5997933D1*
X1384040D1*
X1374777Y6028077D2*
Y5997933D1*
X1354681Y6028077D2*
X1374777Y6007981D1*
X1367614Y6015177D2*
X1354681Y5997933D1*
X1370577Y6571042D2*
Y6558142D1*
X1369118Y6553831D1*
X1367692Y6552372D1*
X1364840Y6550946D1*
X1361955D1*
X1359103Y6552372D1*
X1357644Y6553831D1*
X1356218Y6558142D1*
Y6571042D1*
X1386362D1*
X1370577Y6560994D2*
X1386362Y6550946D1*
X1361988Y6541682D2*
X1360529Y6538797D1*
X1356251Y6534486D1*
X1386362D1*
X1356251Y6508011D2*
Y6522337D1*
X1369151Y6523763D1*
X1367725Y6522337D1*
X1366266Y6518026D1*
Y6513748D1*
X1367725Y6509437D1*
X1370577Y6506552D1*
X1374888Y6505126D1*
X1377740D1*
X1382051Y6506552D1*
X1384936Y6509437D1*
X1386362Y6513748D1*
Y6518026D1*
X1384936Y6522337D1*
X1383477Y6523763D1*
X1380625Y6525222D1*
X1468425Y6451235D2*
X1465540Y6452694D1*
X1461229Y6456972D1*
Y6426861D1*
X1451965Y6457005D2*
Y6426861D1*
X1431869Y6457005D2*
X1451965Y6436909D1*
X1444802Y6444105D2*
X1431869Y6426861D1*
X2244964Y6548907D2*
X2232064D1*
X2227753Y6550366D1*
X2226294Y6551792D1*
X2224868Y6554644D1*
Y6557529D1*
X2226294Y6560381D1*
X2227753Y6561840D1*
X2232064Y6563266D1*
X2244964D1*
Y6533122D1*
X2234916Y6548907D2*
X2224868Y6533122D1*
X2215605Y6557496D2*
X2212720Y6558955D1*
X2208409Y6563233D1*
Y6533122D1*
X2181934Y6558955D2*
X2183360Y6561807D1*
X2187671Y6563233D1*
X2190523D1*
X2194834Y6561807D1*
X2197719Y6557496D1*
X2199145Y6550333D1*
Y6543170D1*
X2197719Y6537433D1*
X2194834Y6534548D1*
X2190523Y6533122D1*
X2189097D1*
X2184819Y6534548D1*
X2181934Y6537433D1*
X2180508Y6541744D1*
Y6543170D1*
X2181934Y6547481D1*
X2184819Y6550333D1*
X2189097Y6551759D1*
X2190523D1*
X2194834Y6550333D1*
X2197719Y6547481D1*
X2199145Y6543170D1*
X2231002Y6351227D2*
X2228117Y6352686D1*
X2223806Y6356964D1*
Y6326853D1*
X2214543Y6356997D2*
Y6326853D1*
X2194447Y6356997D2*
X2214543Y6336901D1*
X2207380Y6344097D2*
X2194447Y6326853D1*
X1514342Y6452683D2*
Y6439783D1*
X1512883Y6435472D1*
X1511457Y6434013D1*
X1508605Y6432587D1*
X1505720D1*
X1502868Y6434013D1*
X1501409Y6435472D1*
X1499983Y6439783D1*
Y6452683D1*
X1530127D1*
X1514342Y6442635D2*
X1530127Y6432587D1*
X1507179Y6421864D2*
X1505753D1*
X1502868Y6420439D1*
X1501442Y6419013D1*
X1500016Y6416127D1*
Y6410391D1*
X1501442Y6407539D1*
X1502868Y6406113D1*
X1505753Y6404654D1*
X1508605D1*
X1511490Y6406113D1*
X1515768Y6408965D1*
X1530127Y6423324D1*
Y6403228D1*
X1500016Y6385342D2*
X1501442Y6389653D1*
X1505753Y6392538D1*
X1512916Y6393964D1*
X1517227D1*
X1524390Y6392538D1*
X1528701Y6389653D1*
X1530127Y6385342D1*
Y6382490D1*
X1528701Y6378179D1*
X1524390Y6375327D1*
X1517227Y6373868D1*
X1512916D1*
X1505753Y6375327D1*
X1501442Y6378179D1*
X1500016Y6382490D1*
Y6385342D1*
X1505753Y6375327D2*
X1524390Y6392538D1*
X1553602Y6446233D2*
X1552143Y6443348D1*
X1547865Y6439037D1*
X1577976D1*
X1547865Y6421151D2*
X1549291Y6425463D1*
X1553602Y6428348D1*
X1560765Y6429774D1*
X1565076D1*
X1572239Y6428348D1*
X1576550Y6425463D1*
X1577976Y6421151D1*
Y6418300D1*
X1576550Y6413989D1*
X1572239Y6411137D1*
X1565076Y6409678D1*
X1560765D1*
X1553602Y6411137D1*
X1549291Y6413989D1*
X1547865Y6418300D1*
Y6421151D1*
X1553602Y6411137D2*
X1572239Y6428348D1*
X1547832Y6400414D2*
X1577976D1*
X1547832Y6380318D2*
X1567928Y6400414D1*
X1560732Y6393251D2*
X1577976Y6380318D1*
X2128852Y6548618D2*
X2115953D1*
X2111642Y6550077D1*
X2110182Y6551503D1*
X2108756Y6554355D1*
Y6557240D1*
X2110182Y6560092D1*
X2111642Y6561551D1*
X2115953Y6562977D1*
X2128852D1*
Y6532833D1*
X2118804Y6548618D2*
X2108756Y6532833D1*
X2098034Y6555781D2*
Y6557207D1*
X2096608Y6560092D1*
X2095182Y6561518D1*
X2092297Y6562944D1*
X2086560D1*
X2083708Y6561518D1*
X2082282Y6560092D1*
X2080823Y6557207D1*
Y6554355D1*
X2082282Y6551470D1*
X2085134Y6547192D1*
X2099493Y6532833D1*
X2079397D1*
X2067248Y6562944D2*
X2051496D1*
X2060085Y6551470D1*
X2055774D1*
X2052922Y6550044D1*
X2051496Y6548618D1*
X2050037Y6544307D1*
Y6541455D1*
X2051496Y6537144D1*
X2054348Y6534259D1*
X2058659Y6532833D1*
X2062970D1*
X2067248Y6534259D1*
X2068674Y6535718D1*
X2070133Y6538570D1*
X2118951Y6350935D2*
X2116066Y6352394D1*
X2111755Y6356672D1*
Y6326561D1*
X2093869Y6356672D2*
X2098180Y6355246D1*
X2101065Y6350935D1*
X2102491Y6343772D1*
Y6339461D1*
X2101065Y6332298D1*
X2098180Y6327987D1*
X2093869Y6326561D1*
X2091017D1*
X2086706Y6327987D1*
X2083855Y6332298D1*
X2082395Y6339461D1*
Y6343772D1*
X2083855Y6350935D1*
X2086706Y6355246D1*
X2091017Y6356672D1*
X2093869D1*
X2083855Y6350935D2*
X2101065Y6332298D1*
X2073132Y6356705D2*
Y6326561D1*
X2053036Y6356705D2*
X2073132Y6336609D1*
X2065969Y6343806D2*
X2053036Y6326561D1*
X2860892Y304008D2*
X2847992D1*
X2843681Y305467D1*
X2842222Y306893D1*
X2840796Y309745D1*
Y312630D1*
X2842222Y315482D1*
X2843681Y316941D1*
X2847992Y318367D1*
X2860892D1*
Y288223D1*
X2850844Y304008D2*
X2840796Y288223D1*
X2830074Y311171D2*
Y312597D1*
X2828648Y315482D1*
X2827222Y316908D1*
X2824337Y318334D1*
X2818600D1*
X2815748Y316908D1*
X2814322Y315482D1*
X2812863Y312597D1*
Y309745D1*
X2814322Y306860D1*
X2817174Y302582D1*
X2831533Y288223D1*
X2811437D1*
X2787814D2*
Y318334D1*
X2802173Y298271D1*
X2780651D1*
X2856528Y106325D2*
X2853643Y107784D1*
X2849332Y112062D1*
Y81951D1*
X2831447Y112062D2*
X2835758Y110636D1*
X2838643Y106325D1*
X2840069Y99162D1*
Y94851D1*
X2838643Y87688D1*
X2835758Y83377D1*
X2831447Y81951D1*
X2828595D1*
X2824284Y83377D1*
X2821432Y87688D1*
X2819973Y94851D1*
Y99162D1*
X2821432Y106325D1*
X2824284Y110636D1*
X2828595Y112062D1*
X2831447D1*
X2821432Y106325D2*
X2838643Y87688D1*
X2810709Y112095D2*
Y81951D1*
X2790613Y112095D2*
X2810709Y91999D1*
X2803546Y99195D2*
X2790613Y81951D1*
X2746938Y304008D2*
X2734038D1*
X2729727Y305467D1*
X2728268Y306893D1*
X2726842Y309745D1*
Y312630D1*
X2728268Y315482D1*
X2729727Y316941D1*
X2734038Y318367D1*
X2746938D1*
Y288223D1*
X2736890Y304008D2*
X2726842Y288223D1*
X2716119Y311171D2*
Y312597D1*
X2714693Y315482D1*
X2713267Y316908D1*
X2710382Y318334D1*
X2704645D1*
X2701793Y316908D1*
X2700367Y315482D1*
X2698908Y312597D1*
Y309745D1*
X2700367Y306860D1*
X2703219Y302582D1*
X2717578Y288223D1*
X2697482D1*
X2671008Y314056D2*
X2672434Y316908D1*
X2676745Y318334D1*
X2679597D1*
X2683908Y316908D1*
X2686793Y312597D1*
X2688219Y305434D1*
Y298271D1*
X2686793Y292534D1*
X2683908Y289649D1*
X2679597Y288223D1*
X2678171D1*
X2673893Y289649D1*
X2671008Y292534D1*
X2669582Y296845D1*
Y298271D1*
X2671008Y302582D1*
X2673893Y305434D1*
X2678171Y306860D1*
X2679597D1*
X2683908Y305434D1*
X2686793Y302582D1*
X2688219Y298271D1*
X2737766Y106325D2*
X2734881Y107784D1*
X2730570Y112062D1*
Y81951D1*
X2712684Y112062D2*
X2716995Y110636D1*
X2719880Y106325D1*
X2721306Y99162D1*
Y94851D1*
X2719880Y87688D1*
X2716995Y83377D1*
X2712684Y81951D1*
X2709832D1*
X2705521Y83377D1*
X2702669Y87688D1*
X2701210Y94851D1*
Y99162D1*
X2702669Y106325D1*
X2705521Y110636D1*
X2709832Y112062D1*
X2712684D1*
X2702669Y106325D2*
X2719880Y87688D1*
X2691947Y112095D2*
Y81951D1*
X2671851Y112095D2*
X2691947Y91999D1*
X2684784Y99195D2*
X2671851Y81951D1*
X2310121Y297962D2*
X2297222D1*
X2292911Y299421D1*
X2291451Y300847D1*
X2290025Y303699D1*
Y306584D1*
X2291451Y309436D1*
X2292911Y310895D1*
X2297222Y312321D1*
X2310121D1*
Y282177D1*
X2300073Y297962D2*
X2290025Y282177D1*
X2279303Y305125D2*
Y306551D1*
X2277877Y309436D1*
X2276451Y310862D1*
X2273566Y312288D1*
X2267829D1*
X2264977Y310862D1*
X2263551Y309436D1*
X2262092Y306551D1*
Y303699D1*
X2263551Y300814D1*
X2266403Y296536D1*
X2280762Y282177D1*
X2260666D1*
X2245665D2*
X2231306Y312288D1*
X2251402D1*
X2306471Y106530D2*
X2303586Y107989D1*
X2299275Y112267D1*
Y82156D1*
X2281389Y112267D2*
X2285700Y110841D1*
X2288585Y106530D1*
X2290011Y99367D1*
Y95056D1*
X2288585Y87893D1*
X2285700Y83582D1*
X2281389Y82156D1*
X2278537D1*
X2274226Y83582D1*
X2271374Y87893D1*
X2269915Y95056D1*
Y99367D1*
X2271374Y106530D1*
X2274226Y110841D1*
X2278537Y112267D1*
X2281389D1*
X2271374Y106530D2*
X2288585Y87893D1*
X2260652Y112300D2*
Y82156D1*
X2240556Y112300D2*
X2260652Y92204D1*
X2253489Y99400D2*
X2240556Y82156D1*
X2635156Y304008D2*
X2622256D1*
X2617945Y305467D1*
X2616486Y306893D1*
X2615060Y309745D1*
Y312630D1*
X2616486Y315482D1*
X2617945Y316941D1*
X2622256Y318367D1*
X2635156D1*
Y288223D1*
X2625108Y304008D2*
X2615060Y288223D1*
X2602911Y318334D2*
X2587159D1*
X2595748Y306860D1*
X2591437D1*
X2588585Y305434D1*
X2587159Y304008D1*
X2585700Y299697D1*
Y296845D1*
X2587159Y292534D1*
X2590011Y289649D1*
X2594322Y288223D1*
X2598633D1*
X2602911Y289649D1*
X2604337Y291108D1*
X2605796Y293960D1*
X2573551Y318334D2*
X2557800D1*
X2566388Y306860D1*
X2562077D1*
X2559226Y305434D1*
X2557800Y304008D1*
X2556340Y299697D1*
Y296845D1*
X2557800Y292534D1*
X2560652Y289649D1*
X2564963Y288223D1*
X2569274D1*
X2573551Y289649D1*
X2574977Y291108D1*
X2576436Y293960D1*
X2637755Y106325D2*
X2634870Y107784D1*
X2630559Y112062D1*
Y81951D1*
X2612674Y112062D2*
X2616985Y110636D1*
X2619870Y106325D1*
X2621296Y99162D1*
Y94851D1*
X2619870Y87688D1*
X2616985Y83377D1*
X2612674Y81951D1*
X2609822D1*
X2605511Y83377D1*
X2602659Y87688D1*
X2601200Y94851D1*
Y99162D1*
X2602659Y106325D1*
X2605511Y110636D1*
X2609822Y112062D1*
X2612674D1*
X2602659Y106325D2*
X2619870Y87688D1*
X2591936Y112095D2*
Y81951D1*
X2571840Y112095D2*
X2591936Y91999D1*
X2584773Y99195D2*
X2571840Y81951D1*
X2529607Y304008D2*
X2516707D1*
X2512396Y305467D1*
X2510937Y306893D1*
X2509511Y309745D1*
Y312630D1*
X2510937Y315482D1*
X2512396Y316941D1*
X2516707Y318367D1*
X2529607D1*
Y288223D1*
X2519559Y304008D2*
X2509511Y288223D1*
X2497363Y318334D2*
X2481611D1*
X2490200Y306860D1*
X2485889D1*
X2483037Y305434D1*
X2481611Y304008D1*
X2480152Y299697D1*
Y296845D1*
X2481611Y292534D1*
X2484463Y289649D1*
X2488774Y288223D1*
X2493085D1*
X2497363Y289649D1*
X2498789Y291108D1*
X2500248Y293960D1*
X2456529Y288223D2*
Y318334D1*
X2470888Y298271D1*
X2449366D1*
X2525244Y106325D2*
X2522359Y107784D1*
X2518048Y112062D1*
Y81951D1*
X2500162Y112062D2*
X2504473Y110636D1*
X2507358Y106325D1*
X2508784Y99162D1*
Y94851D1*
X2507358Y87688D1*
X2504473Y83377D1*
X2500162Y81951D1*
X2497310D1*
X2492999Y83377D1*
X2490147Y87688D1*
X2488688Y94851D1*
Y99162D1*
X2490147Y106325D1*
X2492999Y110636D1*
X2497310Y112062D1*
X2500162D1*
X2490147Y106325D2*
X2507358Y87688D1*
X2479424Y112095D2*
Y81951D1*
X2459328Y112095D2*
X2479424Y91999D1*
X2472262Y99195D2*
X2459328Y81951D1*
X2422633Y297757D2*
X2409733D1*
X2405422Y299216D1*
X2403963Y300642D1*
X2402537Y303494D1*
Y306379D1*
X2403963Y309231D1*
X2405422Y310690D1*
X2409733Y312116D1*
X2422633D1*
Y281972D1*
X2412585Y297757D2*
X2402537Y281972D1*
X2390389Y312083D2*
X2374637D1*
X2383226Y300609D1*
X2378915D1*
X2376063Y299183D1*
X2374637Y297757D1*
X2373178Y293446D1*
Y290594D1*
X2374637Y286283D1*
X2377489Y283398D1*
X2381800Y281972D1*
X2386111D1*
X2390389Y283398D1*
X2391815Y284857D1*
X2393274Y287709D1*
X2346703Y312083D2*
X2361029D1*
X2362455Y299183D1*
X2361029Y300609D1*
X2356718Y302068D1*
X2352440D1*
X2348129Y300609D1*
X2345244Y297757D1*
X2343818Y293446D1*
Y290594D1*
X2345244Y286283D1*
X2348129Y283398D1*
X2352440Y281972D1*
X2356718D1*
X2361029Y283398D1*
X2362455Y284857D1*
X2363914Y287709D1*
X2412732Y106325D2*
X2409847Y107784D1*
X2405536Y112062D1*
Y81951D1*
X2387650Y112062D2*
X2391961Y110636D1*
X2394846Y106325D1*
X2396272Y99162D1*
Y94851D1*
X2394846Y87688D1*
X2391961Y83377D1*
X2387650Y81951D1*
X2384798D1*
X2380487Y83377D1*
X2377635Y87688D1*
X2376176Y94851D1*
Y99162D1*
X2377635Y106325D1*
X2380487Y110636D1*
X2384798Y112062D1*
X2387650D1*
X2377635Y106325D2*
X2394846Y87688D1*
X2366913Y112095D2*
Y81951D1*
X2346817Y112095D2*
X2366913Y91999D1*
X2359750Y99195D2*
X2346817Y81951D1*
X1008259Y6799130D2*
X995359D1*
X991048Y6800589D1*
X989589Y6802015D1*
X988163Y6804867D1*
Y6807752D1*
X989589Y6810604D1*
X991048Y6812063D1*
X995359Y6813489D1*
X1008259D1*
Y6783345D1*
X998211Y6799130D2*
X988163Y6783345D1*
X976015Y6813456D2*
X960263D1*
X968852Y6801982D1*
X964541D1*
X961689Y6800556D1*
X960263Y6799130D1*
X958804Y6794819D1*
Y6791967D1*
X960263Y6787656D1*
X963115Y6784771D1*
X967426Y6783345D1*
X971737D1*
X976015Y6784771D1*
X977441Y6786230D1*
X978900Y6789082D1*
X943803Y6783345D2*
X929444Y6813456D1*
X949540D1*
X1001807Y6595210D2*
X998922Y6596669D1*
X994611Y6600947D1*
Y6570836D1*
X985347Y6586621D2*
X972447D1*
X968136Y6588080D1*
X966677Y6589506D1*
X965251Y6592358D1*
Y6595243D1*
X966677Y6598095D1*
X968136Y6599554D1*
X972447Y6600980D1*
X985347D1*
Y6570836D1*
X975299Y6586621D2*
X965251Y6570836D1*
X947365Y6600947D2*
X951676Y6599521D1*
X954562Y6595210D1*
X955987Y6588047D1*
Y6583736D1*
X954562Y6576573D1*
X951676Y6572262D1*
X947365Y6570836D1*
X944514D1*
X940203Y6572262D1*
X937351Y6576573D1*
X935891Y6583736D1*
Y6588047D1*
X937351Y6595210D1*
X940203Y6599521D1*
X944514Y6600947D1*
X947365D1*
X937351Y6595210D2*
X954562Y6576573D1*
X1733425Y329606D2*
X1720525D1*
X1716214Y331065D1*
X1714755Y332491D1*
X1713329Y335343D1*
Y338228D1*
X1714755Y341080D1*
X1716214Y342539D1*
X1720525Y343965D1*
X1733425D1*
Y313821D1*
X1723377Y329606D2*
X1713329Y313821D1*
X1689707D2*
Y343932D1*
X1704066Y323869D1*
X1682544D1*
X1656069Y339654D2*
X1657495Y342506D1*
X1661806Y343932D1*
X1664658D1*
X1668969Y342506D1*
X1671854Y338195D1*
X1673280Y331032D1*
Y323869D1*
X1671854Y318132D1*
X1668969Y315247D1*
X1664658Y313821D1*
X1663232D1*
X1658954Y315247D1*
X1656069Y318132D1*
X1654643Y322443D1*
Y323869D1*
X1656069Y328180D1*
X1658954Y331032D1*
X1663232Y332458D1*
X1664658D1*
X1668969Y331032D1*
X1671854Y328180D1*
X1673280Y323869D1*
X1724453Y137661D2*
X1738779D1*
X1740205Y124761D1*
X1738779Y126187D1*
X1734468Y127646D1*
X1730190D1*
X1725879Y126187D1*
X1722994Y123335D1*
X1721568Y119024D1*
Y116172D1*
X1722994Y111861D1*
X1725879Y108976D1*
X1730190Y107550D1*
X1734468D1*
X1738779Y108976D1*
X1740205Y110435D1*
X1741664Y113287D1*
X1712304Y131924D2*
X1709419Y133383D1*
X1705108Y137661D1*
Y107550D1*
X1687222Y137661D2*
X1691533Y136235D1*
X1694418Y131924D1*
X1695844Y124761D1*
Y120450D1*
X1694418Y113287D1*
X1691533Y108976D1*
X1687222Y107550D1*
X1684370D1*
X1680059Y108976D1*
X1677208Y113287D1*
X1675748Y120450D1*
Y124761D1*
X1677208Y131924D1*
X1680059Y136235D1*
X1684370Y137661D1*
X1687222D1*
X1677208Y131924D2*
X1694418Y113287D1*
X1666485Y123335D2*
X1653585D1*
X1649274Y124794D1*
X1647815Y126220D1*
X1646389Y129072D1*
Y131957D1*
X1647815Y134809D1*
X1649274Y136268D1*
X1653585Y137694D1*
X1666485D1*
Y107550D1*
X1656437Y123335D2*
X1646389Y107550D1*
X3436768Y1013562D2*
X3423868D1*
X3419557Y1015021D1*
X3418098Y1016447D1*
X3416672Y1019299D1*
Y1022184D1*
X3418098Y1025036D1*
X3419557Y1026495D1*
X3423868Y1027921D1*
X3436768D1*
Y997777D1*
X3426720Y1013562D2*
X3416672Y997777D1*
X3393049D2*
Y1027888D1*
X3407408Y1007825D1*
X3385886D1*
X3362264Y997777D2*
Y1027888D1*
X3376623Y1007825D1*
X3355101D1*
X3437942Y865885D2*
X3435057Y867344D1*
X3430746Y871622D1*
Y841511D1*
X3412860Y871622D2*
X3417171Y870196D1*
X3420056Y865885D1*
X3421482Y858722D1*
Y854411D1*
X3420056Y847248D1*
X3417171Y842937D1*
X3412860Y841511D1*
X3410008D1*
X3405697Y842937D1*
X3402845Y847248D1*
X3401386Y854411D1*
Y858722D1*
X3402845Y865885D1*
X3405697Y870196D1*
X3410008Y871622D1*
X3412860D1*
X3402845Y865885D2*
X3420056Y847248D1*
X3392123Y871655D2*
Y841511D1*
X3372027Y871655D2*
X3392123Y851559D1*
X3384960Y858755D2*
X3372027Y841511D1*
M02*
