M48
INCH
T01C0.0118
T02C0.0197
T03C0.0276
T04C0.0315
T05C0.0354
T06C0.0394
T07C0.0453
T08C0.046
T09C0.0472
T10C0.0492
T11C0.0591
T12C0.0787
T13C0.126
T14C0.1575
%
T01
X+009313Y+009876
X+008251Y+010626
X+006126Y+010751
X+006126Y+012251
X+006251Y+013251
X+008188Y+013564
X+010376Y+013564
X+011564Y+013501
X+011376Y+015814
X+011314Y+016564
X+010126Y+016627
X+010376Y+018377
X+009063Y+019627
X+010251Y+021315
X+010251Y+022252
X+008563Y+021754
X+007376Y+022252
X+006751Y+020815
X+008876Y+023690
X+008251Y+024690
X+006876Y+024753
X+006876Y+026128
X+007063Y+026754
X+007751Y+026190
X+007751Y+028253
X+007313Y+028754
X+007626Y+029754
X+007938Y+030754
X+009188Y+028878
X+010251Y+027003
X+010251Y+026378
X+010251Y+024940
X+010251Y+024440
X+014126Y+023754
X+015252Y+024753
X+016002Y+026190
X+016752Y+027259
X+015689Y+027754
X+014877Y+028253
X+015252Y+028741
X+015627Y+029253
X+016002Y+029754
X+017127Y+030253
X+017502Y+029754
X+016752Y+030754
X+016002Y+031003
X+016377Y+031754
X+017877Y+032253
X+017127Y+033504
X+017127Y+034254
X+016252Y+033566
X+016189Y+035129
X+015627Y+035754
X+014877Y+035754
X+015627Y+036754
X+016189Y+036754
X+016252Y+036254
X+016377Y+037254
X+016377Y+037754
X+016002Y+038254
X+012876Y+038754
X+012564Y+040567
X+012064Y+041567
X+011126Y+041942
X+011001Y+043067
X+010001Y+043192
X+008876Y+042880
X+009501Y+040192
X+007313Y+040192
X+004813Y+042567
X+004750Y+043380
X+003688Y+043442
X+003063Y+043067
X+001500Y+043442
X+001563Y+041942
X+003313Y+039817
X+003500Y+045505
X+004500Y+048255
X+004500Y+049880
X+002375Y+051630
X+007813Y+052005
X+007813Y+049880
X+007813Y+048255
X+012001Y+045505
X+014001Y+043880
X+014500Y+043192
X+015500Y+042318
X+016002Y+042817
X+017127Y+042567
X+018502Y+043630
X+019377Y+042880
X+019002Y+041192
X+019752Y+040567
X+020565Y+041504
X+019877Y+038879
X+022002Y+036754
X+022377Y+036254
X+023500Y+035254
X+023878Y+035754
X+022752Y+034754
X+023127Y+034441
X+023500Y+033754
X+023127Y+033253
X+024253Y+032754
X+025003Y+032754
X+023815Y+031754
X+023815Y+030754
X+025378Y+029754
X+025753Y+030754
X+028065Y+030753
X+027753Y+032754
X+027440Y+033754
X+027440Y+034754
X+028378Y+034277
X+028565Y+035754
X+028440Y+037191
X+029128Y+037191
X+029878Y+037191
X+029878Y+038879
X+029128Y+038879
X+028440Y+038879
X+028440Y+040567
X+029128Y+040567
X+029878Y+040567
X+029191Y+041567
X+030503Y+042754
X+032566Y+041817
X+027753Y+043005
X+027378Y+042254
X+026753Y+041567
X+024628Y+041504
X+025003Y+047380
X+026003Y+047380
X+027003Y+047380
X+028003Y+049068
X+029003Y+049068
X+029003Y+049818
X+027003Y+049818
X+025940Y+049818
X+025003Y+049818
X+024003Y+049818
X+023065Y+048630
X+022377Y+049443
X+021502Y+049755
X+021252Y+048818
X+020502Y+048068
X+018564Y+048818
X+017502Y+047505
X+016502Y+048380
X+016814Y+049380
X+019065Y+052818
X+020002Y+052443
X+020940Y+052818
X+020877Y+051880
X+021440Y+051818
X+022440Y+052443
X+022565Y+053756
X+024003Y+052443
X+025003Y+052443
X+026003Y+052443
X+027003Y+052443
X+028003Y+052443
X+029003Y+052443
X+030003Y+052443
X+031066Y+052443
X+032691Y+051755
X+032628Y+049443
X+029503Y+053443
X+029503Y+056131
X+030441Y+056131
X+030441Y+057319
X+031753Y+056943
X+033441Y+055631
X+029753Y+059444
X+028253Y+059256
X+027253Y+060069
X+027753Y+061444
X+026440Y+061569
X+030316Y+062757
X+030628Y+062507
X+030878Y+062194
X+031128Y+062507
X+031441Y+062757
X+031128Y+063007
X+030878Y+063319
X+030628Y+063007
X+027503Y+057381
X+027503Y+056131
X+026503Y+056131
X+025503Y+056131
X+024503Y+056131
X+023502Y+056131
X+022502Y+056131
X+021502Y+056131
X+021502Y+057381
X+019502Y+057319
X+018502Y+057319
X+017502Y+057319
X+015502Y+057319
X+012876Y+058631
X+012064Y+060944
X+011064Y+061319
X+010126Y+060881
X+009690Y+062818
X+010564Y+062819
X+011626Y+062819
X+012501Y+062818
X+013565Y+062818
X+014440Y+062758
X+014001Y+060944
X+013064Y+061319
X+013751Y+064507
X+014502Y+065819
X+013001Y+065944
X+011251Y+064569
X+011251Y+067507
X+017314Y+067570
X+020877Y+064819
X+022127Y+064694
X+018627Y+054318
X+019127Y+053943
X+011876Y+055381
X+010876Y+054443
X+010501Y+054756
X+010126Y+055068
X+009564Y+056381
X+009251Y+058694
X+018502Y+045317
X+020002Y+045192
X+023002Y+047317
X+024003Y+047380
X+024253Y+034277
X+021252Y+034129
X+021627Y+032253
X+024190Y+027253
X+025190Y+027815
X+025190Y+026628
X+023815Y+026065
X+021565Y+024878
X+023127Y+021752
X+023878Y+019440
X+025940Y+019877
X+027378Y+020752
X+027378Y+021752
X+027378Y+022690
X+026815Y+024815
X+029316Y+024815
X+030628Y+024378
X+032503Y+026003
X+033566Y+025503
X+033379Y+024315
X+030941Y+026940
X+031128Y+028253
X+031003Y+029754
X+030628Y+030253
X+028440Y+028253
X+027378Y+028754
X+027940Y+019877
X+031753Y+016189
X+033754Y+018064
X+033754Y+014251
X+033193Y+009345
X+029628Y+006188
X+028565Y+006188
X+027503Y+006188
X+026378Y+006188
X+025315Y+006188
X+024190Y+006188
X+023065Y+006188
X+021877Y+007001
X+021440Y+005688
X+020440Y+005813
X+020752Y+004000
X+019752Y+008313
X+020377Y+009501
X+019252Y+010439
X+020002Y+011064
X+018002Y+012689
X+016752Y+013751
X+015689Y+013689
X+015127Y+013689
X+017314Y+014689
X+018252Y+015127
X+017252Y+015752
X+016377Y+015752
X+015627Y+017064
X+015439Y+017689
X+015377Y+019377
X+014502Y+020877
X+015252Y+021315
X+015689Y+022754
X+017127Y+023752
X+017377Y+025815
X+014502Y+026754
X+014502Y+029754
X+014126Y+031253
X+014877Y+032754
X+014126Y+034754
X+009501Y+033066
X+005688Y+028253
X+001750Y+028941
X+004188Y+024253
X+001688Y+019815
X+004063Y+015189
X+004063Y+013501
X+001813Y+012814
X+001813Y+012189
X+001563Y+009126
X+002250Y+009126
X+001750Y+005251
X+001750Y+004625
X+003938Y+002813
X+006251Y+002813
X+008063Y+002813
X+009501Y+002813
X+009939Y+005626
X+011689Y+005751
X+013189Y+006751
X+014314Y+005063
X+015877Y+005501
X+015127Y+002438
X+014064Y+002688
X+012564Y+002688
X+006063Y+005751
X+006376Y+007001
X+006376Y+008126
X+012064Y+010064
X+017189Y+010064
X+017627Y+009438
X+018189Y+008876
X+022627Y+010564
X+023752Y+007688
X+024190Y+007376
X+024815Y+008251
X+025315Y+007376
X+026378Y+007376
X+027440Y+007438
X+030066Y+002813
X+030066Y+001938
X+032191Y+002688
X+032941Y+002438
X+033629Y+002688
X+034004Y+003500
X+033754Y+004250
X+032941Y+004563
X+032191Y+004313
X+031878Y+003500
X+027253Y+012814
X+021815Y+016127
X+019002Y+016439
X+019502Y+018064
X+018627Y+018564
X+018627Y+019377
X+019440Y+019377
X+019440Y+020690
X+018627Y+020690
X+017127Y+018564
X+017252Y+017689
X+013689Y+018689
X+013689Y+016439
X+013001Y+021252
X+013751Y+021754
X+006938Y+016564
X+006938Y+015564
X+019502Y+014251
T02
X+030878Y+062757
X+028003Y+064507
X+025315Y+066382
X+026628Y+068507
X+018252Y+065817
X+032691Y+050755
X+033879Y+046505
X+032378Y+039754
X+012064Y+020002
T03
X+006701Y+070736G85X+007425Y+070736
X+011639Y+070736G85X+012363Y+070736
X+019702Y+070736G85X+020427Y+070736
X+025565Y+022627
X+025065Y+021752
X+026065Y+021752
X+028440Y+021377
X+029440Y+021377
X+028940Y+022252
T04
X+003465Y+011626G85X+003760Y+011626
X+003465Y+006515G85X+003760Y+006515
T05
X+007438Y+006938
X+008438Y+006938
X+009438Y+006938
X+010438Y+006938
X+011438Y+006938
X+014627Y+006938
X+015627Y+006938
X+016627Y+006938
X+017627Y+006938
X+018627Y+006938
X+019627Y+006938
T06
X+008063Y+068507
X+007063Y+068507
X+006751Y+066007
X+007751Y+066007
X+005251Y+065319
X+005251Y+064319
X+005938Y+062882
X+007352Y+061467
X+012001Y+056755
X+013001Y+056755
X+014001Y+056755
X+015001Y+056755
X+016001Y+056755
X+017001Y+056755
X+018001Y+056755
X+019001Y+056755
X+020001Y+056755
X+021001Y+056755
X+022001Y+056755
X+023001Y+056755
X+024001Y+056755
X+025001Y+056755
X+026001Y+056755
X+027001Y+056755
X+028001Y+056755
X+029001Y+056755
X+030001Y+056755
X+031001Y+056755
X+031001Y+050755
X+030001Y+050755
X+029001Y+050755
X+028001Y+050755
X+027001Y+050755
X+026001Y+050755
X+025001Y+050755
X+024001Y+050755
X+023001Y+050755
X+022001Y+050755
X+021001Y+050755
X+020001Y+050755
X+019001Y+050755
X+018001Y+050755
X+017001Y+050755
X+016001Y+050755
X+015001Y+050755
X+014001Y+050755
X+013001Y+050755
X+012001Y+050755
X+012500Y+046505
X+011500Y+046505
X+010500Y+046505
X+009500Y+046505
X+008500Y+046505
X+007500Y+046505
X+006500Y+046505
X+005500Y+046505
X+004500Y+046505
X+003500Y+046505
X+003501Y+044505
X+004501Y+044505
X+005500Y+044505
X+006500Y+044505
X+007500Y+044505
X+008500Y+044505
X+009500Y+044505
X+010500Y+044505
X+011500Y+044505
X+012500Y+044505
X+013500Y+044505
X+014500Y+044505
X+015500Y+044505
X+016500Y+044505
X+017500Y+044505
X+018500Y+044505
X+019500Y+044505
X+020500Y+044505
X+021500Y+044505
X+022500Y+044505
X+023500Y+044505
X+024500Y+044505
X+025500Y+044505
X+026500Y+044505
X+027500Y+044505
X+028500Y+044505
X+029500Y+044505
X+030500Y+044505
X+031500Y+044505
X+032500Y+044505
X+032500Y+046505
X+031500Y+046505
X+030500Y+046505
X+029500Y+046505
X+028500Y+046505
X+027500Y+046505
X+026500Y+046505
X+025500Y+046505
X+024500Y+046505
X+023500Y+046505
X+022500Y+046505
X+021500Y+046505
X+020500Y+046505
X+019500Y+046505
X+018500Y+046505
X+017500Y+046505
X+016500Y+046505
X+015500Y+046505
X+014500Y+046505
X+013500Y+046505
X+011063Y+039754
X+011063Y+038754
X+011063Y+037754
X+011063Y+036754
X+011063Y+035754
X+011063Y+034754
X+011063Y+033754
X+011063Y+032754
X+011063Y+031754
X+011063Y+030754
X+011063Y+029754
X+011063Y+028754
X+011063Y+027754
X+011063Y+026754
X+011063Y+025754
X+011063Y+024754
X+011063Y+023754
X+011063Y+022754
X+011063Y+021754
X+011063Y+020754
X+011438Y+017565
X+012438Y+017565
X+013438Y+017565
X+014438Y+017565
X+014438Y+014565
X+013438Y+014565
X+012438Y+014565
X+011438Y+014565
X+010438Y+014565
X+009438Y+014565
X+008438Y+014565
X+007438Y+014565
X+007438Y+017565
X+008438Y+017565
X+009438Y+017565
X+010438Y+017565
X+010438Y+011501
X+011438Y+011501
X+012438Y+011501
X+013438Y+011501
X+014438Y+011501
X+014438Y+008501
X+013438Y+008501
X+012438Y+008501
X+011438Y+008501
X+010438Y+008501
X+009438Y+008501
X+008438Y+008501
X+007438Y+008501
X+007438Y+011501
X+008438Y+011501
X+009438Y+011501
X+003688Y+016314
X+001688Y+016314
X+005063Y+020754
X+005063Y+021754
X+005063Y+022754
X+005063Y+023754
X+005063Y+024754
X+005063Y+025754
X+005063Y+026754
X+005063Y+027754
X+005063Y+028754
X+005063Y+029754
X+005063Y+030754
X+005063Y+031754
X+005063Y+032754
X+005063Y+033754
X+005063Y+034754
X+005063Y+035754
X+005063Y+036754
X+005063Y+037754
X+005063Y+038754
X+005063Y+039754
X+002375Y+039817
X+002375Y+037817
X+013001Y+037754
X+013001Y+036754
X+013001Y+035754
X+013001Y+034754
X+013001Y+033754
X+013001Y+032754
X+013001Y+031754
X+013001Y+030754
X+013001Y+029754
X+013001Y+028754
X+013001Y+027754
X+013001Y+026754
X+019001Y+026754
X+019001Y+027754
X+019001Y+028754
X+019001Y+029754
X+019001Y+030754
X+019001Y+031754
X+019001Y+032754
X+019001Y+033754
X+019001Y+034754
X+019001Y+035754
X+019001Y+036754
X+019001Y+037754
X+020565Y+037754
X+020565Y+036754
X+020565Y+035754
X+020565Y+034754
X+020565Y+033754
X+020565Y+032754
X+020565Y+031754
X+020565Y+030754
X+020565Y+029754
X+020565Y+028754
X+020565Y+027754
X+020565Y+026754
X+026565Y+026754
X+026565Y+027754
X+026565Y+028754
X+026565Y+029754
X+026565Y+030754
X+026565Y+031754
X+026565Y+032754
X+026565Y+033754
X+026565Y+034754
X+026565Y+035754
X+026565Y+036754
X+026565Y+037754
X+029503Y+035754
X+029503Y+034754
X+029503Y+033754
X+029503Y+032754
X+029503Y+031754
X+029503Y+030754
X+029503Y+029754
X+029503Y+028754
X+029503Y+027754
X+029503Y+026754
X+032503Y+026754
X+032503Y+027754
X+032503Y+028754
X+032503Y+029754
X+032503Y+030754
X+032503Y+031754
X+032503Y+032754
X+032503Y+033754
X+032503Y+034754
X+032503Y+035754
X+032754Y+020127
X+033754Y+020127
X+029316Y+017127
X+027690Y+017502
X+026690Y+017502
X+025690Y+017502
X+024065Y+017127
X+024065Y+015227
X+025690Y+014877
X+026690Y+014877
X+027690Y+014877
X+029316Y+015227
X+028315Y+011813
X+027315Y+011813
X+026315Y+011813
X+025315Y+011813
X+024315Y+011813
X+023315Y+011813
X+022315Y+011813
X+021315Y+011813
X+021315Y+008813
X+022315Y+008813
X+023315Y+008813
X+024315Y+008813
X+025315Y+008813
X+026315Y+008813
X+027315Y+008813
X+028315Y+008813
X+031191Y+008334
X+032191Y+008334
X+033191Y+008334
X+033191Y+010439
X+032191Y+010439
X+031191Y+010439
X+024252Y+061319
X+023252Y+061319
X+021127Y+060944
X+021127Y+061944
X+019689Y+062819
X+019689Y+063819
X+019689Y+064819
X+019689Y+065819
X+020065Y+068320
X+021065Y+068320
X+022033Y+071039G85X+022033Y+070433
X+019761Y+072508G85X+020368Y+072508
X+018096Y+071039G85X+018096Y+070433
X+013970Y+071039G85X+013970Y+070433
X+013001Y+068632
X+012001Y+068632
X+010033Y+071039G85X+010033Y+070433
X+009032Y+071039G85X+009032Y+070433
X+006760Y+072508G85X+007366Y+072508
X+005095Y+071039G85X+005095Y+070433
X+011698Y+072508G85X+012304Y+072508
X+016689Y+065819
X+016689Y+064819
X+016689Y+063819
X+016689Y+062819
X+018252Y+061069
X+019252Y+061069
X+028090Y+071207G85X+028090Y+070420
X+030334Y+071995G85X+029547Y+071995
X+031785Y+071206G85X+031785Y+070419
X+030334Y+069632G85X+029547Y+069632
X+002375Y+055881
X+002375Y+053881
T07
X+018377Y+004750
X+016939Y+004750
T08
X+004046Y+004683
X+005136Y+004683
X+006226Y+004683
X+007316Y+004683
X+008406Y+004683
X+009496Y+004683
X+010586Y+004683
X+011676Y+004683
X+011136Y+003563
X+010046Y+003563
X+008956Y+003563
X+007866Y+003563
X+006776Y+003563
X+005686Y+003563
X+004596Y+003563
X+022179Y+004683
X+023270Y+004683
X+024359Y+004683
X+025450Y+004683
X+026539Y+004683
X+027630Y+004683
X+028720Y+004683
X+029809Y+004683
X+029269Y+003563
X+028179Y+003563
X+027089Y+003563
X+025999Y+003563
X+024909Y+003563
X+023819Y+003563
X+022729Y+003563
T09
X+008376Y+054381
X+008376Y+055381
X+008376Y+056381
T10
X+003612Y+010247
X+003612Y+009075
X+003612Y+007890
T11
X+031191Y+006938
X+033191Y+006938
X+033191Y+011751
X+031191Y+011751
T12
X+005376Y+055443
X+032191Y+009407
T13
X+001563Y+071971G85X+001563Y+069294
X+001563Y+066970G85X+001563Y+064293
X+001563Y+061907G85X+001563Y+059230
X+034316Y+065045G85X+034316Y+059218
X+034323Y+071954G85X+034323Y+067308
T14
X+032941Y+003500
T00
M30
