G04 DipTrace 4.0.0.5*
G04 top_paste_dendy_junior_remastered_rev_2.2.1.gbr*
%MOIN*%
G04 #@! TF.FileFunction,Paste,Top*
G04 #@! TF.Part,Single*
%ADD18C,0.019685*%
%ADD70R,0.070866X0.070866*%
%ADD72R,0.070866X0.015748*%
%ADD96R,0.098425X0.037402*%
%ADD106R,0.051181X0.043307*%
%ADD116R,0.070866X0.100394*%
%ADD118R,0.043307X0.051181*%
%FSLAX26Y26*%
G04*
G70*
G90*
G75*
G01*
G04 TopPaste*
%LPD*%
D18*
X3294096Y456298D3*
Y243776D3*
X3400357Y350037D3*
X3187835D3*
X3362853Y268778D3*
X3375354Y425045D3*
X3219088Y268778D3*
Y431295D3*
D118*
X3019067Y1987715D3*
X3093870D3*
D116*
X3137829Y2350247D3*
Y2112703D3*
D118*
X2868846Y1987715D3*
X2794043D3*
X3131579Y2500262D3*
X3206382D3*
X2669030Y1987709D3*
X2594227D3*
X2387648Y2056575D3*
X2312845D3*
D106*
X1537661Y6569440D3*
Y6494636D3*
X1256382Y3981668D3*
Y4056471D3*
D118*
X1187625Y5781857D3*
X1112822D3*
D106*
X1975207Y3981668D3*
Y4056471D3*
X2756539Y3981668D3*
Y4056471D3*
X2325244Y6350667D3*
Y6425470D3*
X2844049Y3981668D3*
Y4056471D3*
X2062717Y3981668D3*
Y4056471D3*
X1343891Y3981668D3*
Y4056471D3*
D118*
X1187625Y5869366D3*
X1112822D3*
D96*
X1543912Y5963126D3*
Y6081236D3*
D118*
X2556518Y2425255D3*
X2631322D3*
D106*
X2987814Y2350247D3*
Y2425050D3*
D118*
X2387648Y2175133D3*
X2312845D3*
Y1944063D3*
X2387648D3*
D106*
X1250234Y6281807D3*
Y6207004D3*
X1056361Y6281909D3*
Y6207106D3*
X1444004Y6281807D3*
Y6207004D3*
X1162622Y6281909D3*
Y6207106D3*
X968954Y6281807D3*
Y6207004D3*
X1356495Y6282012D3*
Y6207209D3*
X1418899Y6675701D3*
Y6750504D3*
D118*
X1125118Y6675701D3*
X1199921D3*
D106*
X1212627Y6531936D3*
Y6457133D3*
X1300136Y6531936D3*
Y6457133D3*
X1125118Y6531936D3*
Y6457133D3*
X1037609Y6531936D3*
Y6457133D3*
X2306492Y618815D3*
Y693618D3*
X2962811Y618815D3*
Y693618D3*
X2856550Y618815D3*
Y693618D3*
X2744038Y618815D3*
Y693618D3*
X2637777Y618815D3*
Y693618D3*
X2531516Y618815D3*
Y693618D3*
X2419004Y618815D3*
Y693618D3*
D118*
X1518909Y6863220D3*
X1593713D3*
D106*
X1625171Y4050425D3*
Y3975622D3*
D118*
X2643823Y6069387D3*
X2569020D3*
X2250236Y5963126D3*
X2325039D3*
X2644028Y6156896D3*
X2569224D3*
X2294093Y6832070D3*
X2368896D3*
D72*
X2425255Y6500682D3*
Y6450682D3*
Y6400682D3*
Y6350682D3*
X2637853D3*
Y6400682D3*
Y6450682D3*
Y6500682D3*
D70*
X2887803Y6275659D3*
X3088591D3*
Y6629990D3*
X2887803D3*
M02*
