G04 #@! TF.FileFunction,Legend,Bot*
%FSLAX46Y46*%
G04 Gerber Fmt 4.6, Leading zero omitted, Abs format (unit mm)*
G04 Created by KiCad (PCBNEW 4.0.4-stable) date 02/16/17 08:27:34*
%MOMM*%
%LPD*%
G01*
G04 APERTURE LIST*
%ADD10C,0.100000*%
%ADD11C,0.200000*%
%ADD12C,0.150000*%
G04 APERTURE END LIST*
D10*
D11*
X173500000Y-140680000D02*
X171700000Y-140680000D01*
X171100000Y-140670000D02*
X169300000Y-140670000D01*
X173500000Y-139800000D02*
X173500000Y-139500000D01*
X173500000Y-139800000D02*
X173500000Y-140100000D01*
X173500000Y-139800000D02*
X173200000Y-139800000D01*
X173500000Y-139800000D02*
X173800000Y-139800000D01*
D12*
X172421428Y-142298571D02*
X172798571Y-142298571D01*
X172609999Y-142298571D02*
X172609999Y-141638571D01*
X172672856Y-141732857D01*
X172735714Y-141795714D01*
X172798571Y-141827143D01*
X172012857Y-141638571D02*
X171950000Y-141638571D01*
X171887143Y-141670000D01*
X171855714Y-141701429D01*
X171824285Y-141764286D01*
X171792857Y-141890000D01*
X171792857Y-142047143D01*
X171824285Y-142172857D01*
X171855714Y-142235714D01*
X171887143Y-142267143D01*
X171950000Y-142298571D01*
X172012857Y-142298571D01*
X172075714Y-142267143D01*
X172107143Y-142235714D01*
X172138571Y-142172857D01*
X172170000Y-142047143D01*
X172170000Y-141890000D01*
X172138571Y-141764286D01*
X172107143Y-141701429D01*
X172075714Y-141670000D01*
X172012857Y-141638571D01*
X171384286Y-141638571D02*
X171321429Y-141638571D01*
X171258572Y-141670000D01*
X171227143Y-141701429D01*
X171195714Y-141764286D01*
X171164286Y-141890000D01*
X171164286Y-142047143D01*
X171195714Y-142172857D01*
X171227143Y-142235714D01*
X171258572Y-142267143D01*
X171321429Y-142298571D01*
X171384286Y-142298571D01*
X171447143Y-142267143D01*
X171478572Y-142235714D01*
X171510000Y-142172857D01*
X171541429Y-142047143D01*
X171541429Y-141890000D01*
X171510000Y-141764286D01*
X171478572Y-141701429D01*
X171447143Y-141670000D01*
X171384286Y-141638571D01*
X170598572Y-141858571D02*
X170598572Y-142298571D01*
X170881429Y-141858571D02*
X170881429Y-142204286D01*
X170850001Y-142267143D01*
X170787143Y-142298571D01*
X170692858Y-142298571D01*
X170630001Y-142267143D01*
X170598572Y-142235714D01*
X170064286Y-141952857D02*
X170284286Y-141952857D01*
X170284286Y-142298571D02*
X170284286Y-141638571D01*
X169970000Y-141638571D01*
D11*
X171700000Y-140200000D02*
X171700000Y-141130000D01*
X171110000Y-140200000D02*
X171110000Y-141130000D01*
D12*
X111610000Y-85660000D02*
X109410000Y-85660000D01*
X103630000Y-201035000D02*
X102430000Y-201035000D01*
X102430000Y-202785000D02*
X103630000Y-202785000D01*
X146875000Y-211810000D02*
X146875000Y-213010000D01*
X148625000Y-213010000D02*
X148625000Y-211810000D01*
X111535000Y-212530000D02*
X111535000Y-213730000D01*
X113285000Y-213730000D02*
X113285000Y-212530000D01*
X111535000Y-197120000D02*
X111535000Y-198320000D01*
X113285000Y-198320000D02*
X113285000Y-197120000D01*
X105505000Y-84510000D02*
X105505000Y-83310000D01*
X103755000Y-83310000D02*
X103755000Y-84510000D01*
X142325000Y-236700000D02*
X142325000Y-235500000D01*
X140575000Y-235500000D02*
X140575000Y-236700000D01*
X183305000Y-179270000D02*
X183305000Y-180470000D01*
X185055000Y-180470000D02*
X185055000Y-179270000D01*
X167635000Y-235500000D02*
X167635000Y-236700000D01*
X169385000Y-236700000D02*
X169385000Y-235500000D01*
X164865000Y-235500000D02*
X164865000Y-236700000D01*
X166615000Y-236700000D02*
X166615000Y-235500000D01*
X162075000Y-235500000D02*
X162075000Y-236700000D01*
X163825000Y-236700000D02*
X163825000Y-235500000D01*
X159295000Y-235500000D02*
X159295000Y-236700000D01*
X161045000Y-236700000D02*
X161045000Y-235500000D01*
X156505000Y-235500000D02*
X156505000Y-236700000D01*
X158255000Y-236700000D02*
X158255000Y-235500000D01*
X153735000Y-235500000D02*
X153735000Y-236700000D01*
X155485000Y-236700000D02*
X155485000Y-235500000D01*
X111093333Y-83666667D02*
X111093333Y-84166667D01*
X111126667Y-84266667D01*
X111193333Y-84333333D01*
X111293333Y-84366667D01*
X111360000Y-84366667D01*
X110760000Y-84366667D02*
X110760000Y-83666667D01*
X110493334Y-83666667D01*
X110426667Y-83700000D01*
X110393334Y-83733333D01*
X110360000Y-83800000D01*
X110360000Y-83900000D01*
X110393334Y-83966667D01*
X110426667Y-84000000D01*
X110493334Y-84033333D01*
X110760000Y-84033333D01*
X109693334Y-84366667D02*
X110093334Y-84366667D01*
X109893334Y-84366667D02*
X109893334Y-83666667D01*
X109960000Y-83766667D01*
X110026667Y-83833333D01*
X110093334Y-83866667D01*
X103480000Y-199330000D02*
X103513334Y-199363333D01*
X103613334Y-199396667D01*
X103680000Y-199396667D01*
X103780000Y-199363333D01*
X103846667Y-199296667D01*
X103880000Y-199230000D01*
X103913334Y-199096667D01*
X103913334Y-198996667D01*
X103880000Y-198863333D01*
X103846667Y-198796667D01*
X103780000Y-198730000D01*
X103680000Y-198696667D01*
X103613334Y-198696667D01*
X103513334Y-198730000D01*
X103480000Y-198763333D01*
X102813334Y-199396667D02*
X103213334Y-199396667D01*
X103013334Y-199396667D02*
X103013334Y-198696667D01*
X103080000Y-198796667D01*
X103146667Y-198863333D01*
X103213334Y-198896667D01*
X102213333Y-198930000D02*
X102213333Y-199396667D01*
X102380000Y-198663333D02*
X102546667Y-199163333D01*
X102113333Y-199163333D01*
X103813334Y-200516667D02*
X104213334Y-200516667D01*
X104013334Y-200516667D02*
X104013334Y-199816667D01*
X104080000Y-199916667D01*
X104146667Y-199983333D01*
X104213334Y-200016667D01*
X103380000Y-199816667D02*
X103313333Y-199816667D01*
X103246667Y-199850000D01*
X103213333Y-199883333D01*
X103180000Y-199950000D01*
X103146667Y-200083333D01*
X103146667Y-200250000D01*
X103180000Y-200383333D01*
X103213333Y-200450000D01*
X103246667Y-200483333D01*
X103313333Y-200516667D01*
X103380000Y-200516667D01*
X103446667Y-200483333D01*
X103480000Y-200450000D01*
X103513333Y-200383333D01*
X103546667Y-200250000D01*
X103546667Y-200083333D01*
X103513333Y-199950000D01*
X103480000Y-199883333D01*
X103446667Y-199850000D01*
X103380000Y-199816667D01*
X102713333Y-199816667D02*
X102646666Y-199816667D01*
X102580000Y-199850000D01*
X102546666Y-199883333D01*
X102513333Y-199950000D01*
X102480000Y-200083333D01*
X102480000Y-200250000D01*
X102513333Y-200383333D01*
X102546666Y-200450000D01*
X102580000Y-200483333D01*
X102646666Y-200516667D01*
X102713333Y-200516667D01*
X102780000Y-200483333D01*
X102813333Y-200450000D01*
X102846666Y-200383333D01*
X102880000Y-200250000D01*
X102880000Y-200083333D01*
X102846666Y-199950000D01*
X102813333Y-199883333D01*
X102780000Y-199850000D01*
X102713333Y-199816667D01*
X102179999Y-200050000D02*
X102179999Y-200516667D01*
X102179999Y-200116667D02*
X102146666Y-200083333D01*
X102079999Y-200050000D01*
X101979999Y-200050000D01*
X101913333Y-200083333D01*
X101879999Y-200150000D01*
X101879999Y-200516667D01*
X148210000Y-210440000D02*
X148243334Y-210473333D01*
X148343334Y-210506667D01*
X148410000Y-210506667D01*
X148510000Y-210473333D01*
X148576667Y-210406667D01*
X148610000Y-210340000D01*
X148643334Y-210206667D01*
X148643334Y-210106667D01*
X148610000Y-209973333D01*
X148576667Y-209906667D01*
X148510000Y-209840000D01*
X148410000Y-209806667D01*
X148343334Y-209806667D01*
X148243334Y-209840000D01*
X148210000Y-209873333D01*
X147943334Y-209873333D02*
X147910000Y-209840000D01*
X147843334Y-209806667D01*
X147676667Y-209806667D01*
X147610000Y-209840000D01*
X147576667Y-209873333D01*
X147543334Y-209940000D01*
X147543334Y-210006667D01*
X147576667Y-210106667D01*
X147976667Y-210506667D01*
X147543334Y-210506667D01*
X147310000Y-209806667D02*
X146843333Y-209806667D01*
X147143333Y-210506667D01*
X148533334Y-214976667D02*
X148933334Y-214976667D01*
X148733334Y-214976667D02*
X148733334Y-214276667D01*
X148800000Y-214376667D01*
X148866667Y-214443333D01*
X148933334Y-214476667D01*
X148100000Y-214276667D02*
X148033333Y-214276667D01*
X147966667Y-214310000D01*
X147933333Y-214343333D01*
X147900000Y-214410000D01*
X147866667Y-214543333D01*
X147866667Y-214710000D01*
X147900000Y-214843333D01*
X147933333Y-214910000D01*
X147966667Y-214943333D01*
X148033333Y-214976667D01*
X148100000Y-214976667D01*
X148166667Y-214943333D01*
X148200000Y-214910000D01*
X148233333Y-214843333D01*
X148266667Y-214710000D01*
X148266667Y-214543333D01*
X148233333Y-214410000D01*
X148200000Y-214343333D01*
X148166667Y-214310000D01*
X148100000Y-214276667D01*
X147433333Y-214276667D02*
X147366666Y-214276667D01*
X147300000Y-214310000D01*
X147266666Y-214343333D01*
X147233333Y-214410000D01*
X147200000Y-214543333D01*
X147200000Y-214710000D01*
X147233333Y-214843333D01*
X147266666Y-214910000D01*
X147300000Y-214943333D01*
X147366666Y-214976667D01*
X147433333Y-214976667D01*
X147500000Y-214943333D01*
X147533333Y-214910000D01*
X147566666Y-214843333D01*
X147600000Y-214710000D01*
X147600000Y-214543333D01*
X147566666Y-214410000D01*
X147533333Y-214343333D01*
X147500000Y-214310000D01*
X147433333Y-214276667D01*
X146899999Y-214510000D02*
X146899999Y-214976667D01*
X146899999Y-214576667D02*
X146866666Y-214543333D01*
X146799999Y-214510000D01*
X146699999Y-214510000D01*
X146633333Y-214543333D01*
X146599999Y-214610000D01*
X146599999Y-214976667D01*
X112860000Y-211160000D02*
X112893334Y-211193333D01*
X112993334Y-211226667D01*
X113060000Y-211226667D01*
X113160000Y-211193333D01*
X113226667Y-211126667D01*
X113260000Y-211060000D01*
X113293334Y-210926667D01*
X113293334Y-210826667D01*
X113260000Y-210693333D01*
X113226667Y-210626667D01*
X113160000Y-210560000D01*
X113060000Y-210526667D01*
X112993334Y-210526667D01*
X112893334Y-210560000D01*
X112860000Y-210593333D01*
X112593334Y-210593333D02*
X112560000Y-210560000D01*
X112493334Y-210526667D01*
X112326667Y-210526667D01*
X112260000Y-210560000D01*
X112226667Y-210593333D01*
X112193334Y-210660000D01*
X112193334Y-210726667D01*
X112226667Y-210826667D01*
X112626667Y-211226667D01*
X112193334Y-211226667D01*
X111593333Y-210526667D02*
X111726667Y-210526667D01*
X111793333Y-210560000D01*
X111826667Y-210593333D01*
X111893333Y-210693333D01*
X111926667Y-210826667D01*
X111926667Y-211093333D01*
X111893333Y-211160000D01*
X111860000Y-211193333D01*
X111793333Y-211226667D01*
X111660000Y-211226667D01*
X111593333Y-211193333D01*
X111560000Y-211160000D01*
X111526667Y-211093333D01*
X111526667Y-210926667D01*
X111560000Y-210860000D01*
X111593333Y-210826667D01*
X111660000Y-210793333D01*
X111793333Y-210793333D01*
X111860000Y-210826667D01*
X111893333Y-210860000D01*
X111926667Y-210926667D01*
X113183334Y-215736667D02*
X113583334Y-215736667D01*
X113383334Y-215736667D02*
X113383334Y-215036667D01*
X113450000Y-215136667D01*
X113516667Y-215203333D01*
X113583334Y-215236667D01*
X112750000Y-215036667D02*
X112683333Y-215036667D01*
X112616667Y-215070000D01*
X112583333Y-215103333D01*
X112550000Y-215170000D01*
X112516667Y-215303333D01*
X112516667Y-215470000D01*
X112550000Y-215603333D01*
X112583333Y-215670000D01*
X112616667Y-215703333D01*
X112683333Y-215736667D01*
X112750000Y-215736667D01*
X112816667Y-215703333D01*
X112850000Y-215670000D01*
X112883333Y-215603333D01*
X112916667Y-215470000D01*
X112916667Y-215303333D01*
X112883333Y-215170000D01*
X112850000Y-215103333D01*
X112816667Y-215070000D01*
X112750000Y-215036667D01*
X112083333Y-215036667D02*
X112016666Y-215036667D01*
X111950000Y-215070000D01*
X111916666Y-215103333D01*
X111883333Y-215170000D01*
X111850000Y-215303333D01*
X111850000Y-215470000D01*
X111883333Y-215603333D01*
X111916666Y-215670000D01*
X111950000Y-215703333D01*
X112016666Y-215736667D01*
X112083333Y-215736667D01*
X112150000Y-215703333D01*
X112183333Y-215670000D01*
X112216666Y-215603333D01*
X112250000Y-215470000D01*
X112250000Y-215303333D01*
X112216666Y-215170000D01*
X112183333Y-215103333D01*
X112150000Y-215070000D01*
X112083333Y-215036667D01*
X111549999Y-215270000D02*
X111549999Y-215736667D01*
X111549999Y-215336667D02*
X111516666Y-215303333D01*
X111449999Y-215270000D01*
X111349999Y-215270000D01*
X111283333Y-215303333D01*
X111249999Y-215370000D01*
X111249999Y-215736667D01*
X112880000Y-195750000D02*
X112913334Y-195783333D01*
X113013334Y-195816667D01*
X113080000Y-195816667D01*
X113180000Y-195783333D01*
X113246667Y-195716667D01*
X113280000Y-195650000D01*
X113313334Y-195516667D01*
X113313334Y-195416667D01*
X113280000Y-195283333D01*
X113246667Y-195216667D01*
X113180000Y-195150000D01*
X113080000Y-195116667D01*
X113013334Y-195116667D01*
X112913334Y-195150000D01*
X112880000Y-195183333D01*
X112613334Y-195183333D02*
X112580000Y-195150000D01*
X112513334Y-195116667D01*
X112346667Y-195116667D01*
X112280000Y-195150000D01*
X112246667Y-195183333D01*
X112213334Y-195250000D01*
X112213334Y-195316667D01*
X112246667Y-195416667D01*
X112646667Y-195816667D01*
X112213334Y-195816667D01*
X111946667Y-195183333D02*
X111913333Y-195150000D01*
X111846667Y-195116667D01*
X111680000Y-195116667D01*
X111613333Y-195150000D01*
X111580000Y-195183333D01*
X111546667Y-195250000D01*
X111546667Y-195316667D01*
X111580000Y-195416667D01*
X111980000Y-195816667D01*
X111546667Y-195816667D01*
X113193334Y-200306667D02*
X113593334Y-200306667D01*
X113393334Y-200306667D02*
X113393334Y-199606667D01*
X113460000Y-199706667D01*
X113526667Y-199773333D01*
X113593334Y-199806667D01*
X112760000Y-199606667D02*
X112693333Y-199606667D01*
X112626667Y-199640000D01*
X112593333Y-199673333D01*
X112560000Y-199740000D01*
X112526667Y-199873333D01*
X112526667Y-200040000D01*
X112560000Y-200173333D01*
X112593333Y-200240000D01*
X112626667Y-200273333D01*
X112693333Y-200306667D01*
X112760000Y-200306667D01*
X112826667Y-200273333D01*
X112860000Y-200240000D01*
X112893333Y-200173333D01*
X112926667Y-200040000D01*
X112926667Y-199873333D01*
X112893333Y-199740000D01*
X112860000Y-199673333D01*
X112826667Y-199640000D01*
X112760000Y-199606667D01*
X112093333Y-199606667D02*
X112026666Y-199606667D01*
X111960000Y-199640000D01*
X111926666Y-199673333D01*
X111893333Y-199740000D01*
X111860000Y-199873333D01*
X111860000Y-200040000D01*
X111893333Y-200173333D01*
X111926666Y-200240000D01*
X111960000Y-200273333D01*
X112026666Y-200306667D01*
X112093333Y-200306667D01*
X112160000Y-200273333D01*
X112193333Y-200240000D01*
X112226666Y-200173333D01*
X112260000Y-200040000D01*
X112260000Y-199873333D01*
X112226666Y-199740000D01*
X112193333Y-199673333D01*
X112160000Y-199640000D01*
X112093333Y-199606667D01*
X111559999Y-199840000D02*
X111559999Y-200306667D01*
X111559999Y-199906667D02*
X111526666Y-199873333D01*
X111459999Y-199840000D01*
X111359999Y-199840000D01*
X111293333Y-199873333D01*
X111259999Y-199940000D01*
X111259999Y-200306667D01*
X105080000Y-81920000D02*
X105113334Y-81953333D01*
X105213334Y-81986667D01*
X105280000Y-81986667D01*
X105380000Y-81953333D01*
X105446667Y-81886667D01*
X105480000Y-81820000D01*
X105513334Y-81686667D01*
X105513334Y-81586667D01*
X105480000Y-81453333D01*
X105446667Y-81386667D01*
X105380000Y-81320000D01*
X105280000Y-81286667D01*
X105213334Y-81286667D01*
X105113334Y-81320000D01*
X105080000Y-81353333D01*
X104413334Y-81986667D02*
X104813334Y-81986667D01*
X104613334Y-81986667D02*
X104613334Y-81286667D01*
X104680000Y-81386667D01*
X104746667Y-81453333D01*
X104813334Y-81486667D01*
X103813333Y-81286667D02*
X103946667Y-81286667D01*
X104013333Y-81320000D01*
X104046667Y-81353333D01*
X104113333Y-81453333D01*
X104146667Y-81586667D01*
X104146667Y-81853333D01*
X104113333Y-81920000D01*
X104080000Y-81953333D01*
X104013333Y-81986667D01*
X103880000Y-81986667D01*
X103813333Y-81953333D01*
X103780000Y-81920000D01*
X103746667Y-81853333D01*
X103746667Y-81686667D01*
X103780000Y-81620000D01*
X103813333Y-81586667D01*
X103880000Y-81553333D01*
X104013333Y-81553333D01*
X104080000Y-81586667D01*
X104113333Y-81620000D01*
X104146667Y-81686667D01*
X105413334Y-86546667D02*
X105813334Y-86546667D01*
X105613334Y-86546667D02*
X105613334Y-85846667D01*
X105680000Y-85946667D01*
X105746667Y-86013333D01*
X105813334Y-86046667D01*
X104980000Y-85846667D02*
X104913333Y-85846667D01*
X104846667Y-85880000D01*
X104813333Y-85913333D01*
X104780000Y-85980000D01*
X104746667Y-86113333D01*
X104746667Y-86280000D01*
X104780000Y-86413333D01*
X104813333Y-86480000D01*
X104846667Y-86513333D01*
X104913333Y-86546667D01*
X104980000Y-86546667D01*
X105046667Y-86513333D01*
X105080000Y-86480000D01*
X105113333Y-86413333D01*
X105146667Y-86280000D01*
X105146667Y-86113333D01*
X105113333Y-85980000D01*
X105080000Y-85913333D01*
X105046667Y-85880000D01*
X104980000Y-85846667D01*
X104313333Y-85846667D02*
X104246666Y-85846667D01*
X104180000Y-85880000D01*
X104146666Y-85913333D01*
X104113333Y-85980000D01*
X104080000Y-86113333D01*
X104080000Y-86280000D01*
X104113333Y-86413333D01*
X104146666Y-86480000D01*
X104180000Y-86513333D01*
X104246666Y-86546667D01*
X104313333Y-86546667D01*
X104380000Y-86513333D01*
X104413333Y-86480000D01*
X104446666Y-86413333D01*
X104480000Y-86280000D01*
X104480000Y-86113333D01*
X104446666Y-85980000D01*
X104413333Y-85913333D01*
X104380000Y-85880000D01*
X104313333Y-85846667D01*
X103779999Y-86080000D02*
X103779999Y-86546667D01*
X103779999Y-86146667D02*
X103746666Y-86113333D01*
X103679999Y-86080000D01*
X103579999Y-86080000D01*
X103513333Y-86113333D01*
X103479999Y-86180000D01*
X103479999Y-86546667D01*
X141910000Y-234216667D02*
X142143334Y-233883333D01*
X142310000Y-234216667D02*
X142310000Y-233516667D01*
X142043334Y-233516667D01*
X141976667Y-233550000D01*
X141943334Y-233583333D01*
X141910000Y-233650000D01*
X141910000Y-233750000D01*
X141943334Y-233816667D01*
X141976667Y-233850000D01*
X142043334Y-233883333D01*
X142310000Y-233883333D01*
X141310000Y-233750000D02*
X141310000Y-234216667D01*
X141476667Y-233483333D02*
X141643334Y-233983333D01*
X141210000Y-233983333D01*
X140643333Y-233516667D02*
X140776667Y-233516667D01*
X140843333Y-233550000D01*
X140876667Y-233583333D01*
X140943333Y-233683333D01*
X140976667Y-233816667D01*
X140976667Y-234083333D01*
X140943333Y-234150000D01*
X140910000Y-234183333D01*
X140843333Y-234216667D01*
X140710000Y-234216667D01*
X140643333Y-234183333D01*
X140610000Y-234150000D01*
X140576667Y-234083333D01*
X140576667Y-233916667D01*
X140610000Y-233850000D01*
X140643333Y-233816667D01*
X140710000Y-233783333D01*
X140843333Y-233783333D01*
X140910000Y-233816667D01*
X140943333Y-233850000D01*
X140976667Y-233916667D01*
X141950000Y-237966667D02*
X142283333Y-237966667D01*
X142316667Y-238300000D01*
X142283333Y-238266667D01*
X142216667Y-238233333D01*
X142050000Y-238233333D01*
X141983333Y-238266667D01*
X141950000Y-238300000D01*
X141916667Y-238366667D01*
X141916667Y-238533333D01*
X141950000Y-238600000D01*
X141983333Y-238633333D01*
X142050000Y-238666667D01*
X142216667Y-238666667D01*
X142283333Y-238633333D01*
X142316667Y-238600000D01*
X141250000Y-238666667D02*
X141650000Y-238666667D01*
X141450000Y-238666667D02*
X141450000Y-237966667D01*
X141516666Y-238066667D01*
X141583333Y-238133333D01*
X141650000Y-238166667D01*
X140816666Y-237966667D02*
X140749999Y-237966667D01*
X140683333Y-238000000D01*
X140649999Y-238033333D01*
X140616666Y-238100000D01*
X140583333Y-238233333D01*
X140583333Y-238400000D01*
X140616666Y-238533333D01*
X140649999Y-238600000D01*
X140683333Y-238633333D01*
X140749999Y-238666667D01*
X140816666Y-238666667D01*
X140883333Y-238633333D01*
X140916666Y-238600000D01*
X140949999Y-238533333D01*
X140983333Y-238400000D01*
X140983333Y-238233333D01*
X140949999Y-238100000D01*
X140916666Y-238033333D01*
X140883333Y-238000000D01*
X140816666Y-237966667D01*
X184630000Y-177976667D02*
X184863334Y-177643333D01*
X185030000Y-177976667D02*
X185030000Y-177276667D01*
X184763334Y-177276667D01*
X184696667Y-177310000D01*
X184663334Y-177343333D01*
X184630000Y-177410000D01*
X184630000Y-177510000D01*
X184663334Y-177576667D01*
X184696667Y-177610000D01*
X184763334Y-177643333D01*
X185030000Y-177643333D01*
X184030000Y-177510000D02*
X184030000Y-177976667D01*
X184196667Y-177243333D02*
X184363334Y-177743333D01*
X183930000Y-177743333D01*
X183330000Y-177276667D02*
X183663333Y-177276667D01*
X183696667Y-177610000D01*
X183663333Y-177576667D01*
X183596667Y-177543333D01*
X183430000Y-177543333D01*
X183363333Y-177576667D01*
X183330000Y-177610000D01*
X183296667Y-177676667D01*
X183296667Y-177843333D01*
X183330000Y-177910000D01*
X183363333Y-177943333D01*
X183430000Y-177976667D01*
X183596667Y-177976667D01*
X183663333Y-177943333D01*
X183696667Y-177910000D01*
X184663334Y-182476667D02*
X185063334Y-182476667D01*
X184863334Y-182476667D02*
X184863334Y-181776667D01*
X184930000Y-181876667D01*
X184996667Y-181943333D01*
X185063334Y-181976667D01*
X184230000Y-181776667D02*
X184163333Y-181776667D01*
X184096667Y-181810000D01*
X184063333Y-181843333D01*
X184030000Y-181910000D01*
X183996667Y-182043333D01*
X183996667Y-182210000D01*
X184030000Y-182343333D01*
X184063333Y-182410000D01*
X184096667Y-182443333D01*
X184163333Y-182476667D01*
X184230000Y-182476667D01*
X184296667Y-182443333D01*
X184330000Y-182410000D01*
X184363333Y-182343333D01*
X184396667Y-182210000D01*
X184396667Y-182043333D01*
X184363333Y-181910000D01*
X184330000Y-181843333D01*
X184296667Y-181810000D01*
X184230000Y-181776667D01*
X183696666Y-182476667D02*
X183696666Y-181776667D01*
X183296666Y-182476667D02*
X183596666Y-182076667D01*
X183296666Y-181776667D02*
X183696666Y-182176667D01*
X168960000Y-234216667D02*
X169193334Y-233883333D01*
X169360000Y-234216667D02*
X169360000Y-233516667D01*
X169093334Y-233516667D01*
X169026667Y-233550000D01*
X168993334Y-233583333D01*
X168960000Y-233650000D01*
X168960000Y-233750000D01*
X168993334Y-233816667D01*
X169026667Y-233850000D01*
X169093334Y-233883333D01*
X169360000Y-233883333D01*
X168693334Y-233583333D02*
X168660000Y-233550000D01*
X168593334Y-233516667D01*
X168426667Y-233516667D01*
X168360000Y-233550000D01*
X168326667Y-233583333D01*
X168293334Y-233650000D01*
X168293334Y-233716667D01*
X168326667Y-233816667D01*
X168726667Y-234216667D01*
X168293334Y-234216667D01*
X167693333Y-233750000D02*
X167693333Y-234216667D01*
X167860000Y-233483333D02*
X168026667Y-233983333D01*
X167593333Y-233983333D01*
X168993334Y-238646667D02*
X169393334Y-238646667D01*
X169193334Y-238646667D02*
X169193334Y-237946667D01*
X169260000Y-238046667D01*
X169326667Y-238113333D01*
X169393334Y-238146667D01*
X168560000Y-237946667D02*
X168493333Y-237946667D01*
X168426667Y-237980000D01*
X168393333Y-238013333D01*
X168360000Y-238080000D01*
X168326667Y-238213333D01*
X168326667Y-238380000D01*
X168360000Y-238513333D01*
X168393333Y-238580000D01*
X168426667Y-238613333D01*
X168493333Y-238646667D01*
X168560000Y-238646667D01*
X168626667Y-238613333D01*
X168660000Y-238580000D01*
X168693333Y-238513333D01*
X168726667Y-238380000D01*
X168726667Y-238213333D01*
X168693333Y-238080000D01*
X168660000Y-238013333D01*
X168626667Y-237980000D01*
X168560000Y-237946667D01*
X168026666Y-238646667D02*
X168026666Y-237946667D01*
X167626666Y-238646667D02*
X167926666Y-238246667D01*
X167626666Y-237946667D02*
X168026666Y-238346667D01*
X166190000Y-234216667D02*
X166423334Y-233883333D01*
X166590000Y-234216667D02*
X166590000Y-233516667D01*
X166323334Y-233516667D01*
X166256667Y-233550000D01*
X166223334Y-233583333D01*
X166190000Y-233650000D01*
X166190000Y-233750000D01*
X166223334Y-233816667D01*
X166256667Y-233850000D01*
X166323334Y-233883333D01*
X166590000Y-233883333D01*
X165923334Y-233583333D02*
X165890000Y-233550000D01*
X165823334Y-233516667D01*
X165656667Y-233516667D01*
X165590000Y-233550000D01*
X165556667Y-233583333D01*
X165523334Y-233650000D01*
X165523334Y-233716667D01*
X165556667Y-233816667D01*
X165956667Y-234216667D01*
X165523334Y-234216667D01*
X164923333Y-233516667D02*
X165056667Y-233516667D01*
X165123333Y-233550000D01*
X165156667Y-233583333D01*
X165223333Y-233683333D01*
X165256667Y-233816667D01*
X165256667Y-234083333D01*
X165223333Y-234150000D01*
X165190000Y-234183333D01*
X165123333Y-234216667D01*
X164990000Y-234216667D01*
X164923333Y-234183333D01*
X164890000Y-234150000D01*
X164856667Y-234083333D01*
X164856667Y-233916667D01*
X164890000Y-233850000D01*
X164923333Y-233816667D01*
X164990000Y-233783333D01*
X165123333Y-233783333D01*
X165190000Y-233816667D01*
X165223333Y-233850000D01*
X165256667Y-233916667D01*
X166223334Y-238646667D02*
X166623334Y-238646667D01*
X166423334Y-238646667D02*
X166423334Y-237946667D01*
X166490000Y-238046667D01*
X166556667Y-238113333D01*
X166623334Y-238146667D01*
X165790000Y-237946667D02*
X165723333Y-237946667D01*
X165656667Y-237980000D01*
X165623333Y-238013333D01*
X165590000Y-238080000D01*
X165556667Y-238213333D01*
X165556667Y-238380000D01*
X165590000Y-238513333D01*
X165623333Y-238580000D01*
X165656667Y-238613333D01*
X165723333Y-238646667D01*
X165790000Y-238646667D01*
X165856667Y-238613333D01*
X165890000Y-238580000D01*
X165923333Y-238513333D01*
X165956667Y-238380000D01*
X165956667Y-238213333D01*
X165923333Y-238080000D01*
X165890000Y-238013333D01*
X165856667Y-237980000D01*
X165790000Y-237946667D01*
X165256666Y-238646667D02*
X165256666Y-237946667D01*
X164856666Y-238646667D02*
X165156666Y-238246667D01*
X164856666Y-237946667D02*
X165256666Y-238346667D01*
X163400000Y-234226667D02*
X163633334Y-233893333D01*
X163800000Y-234226667D02*
X163800000Y-233526667D01*
X163533334Y-233526667D01*
X163466667Y-233560000D01*
X163433334Y-233593333D01*
X163400000Y-233660000D01*
X163400000Y-233760000D01*
X163433334Y-233826667D01*
X163466667Y-233860000D01*
X163533334Y-233893333D01*
X163800000Y-233893333D01*
X163166667Y-233526667D02*
X162733334Y-233526667D01*
X162966667Y-233793333D01*
X162866667Y-233793333D01*
X162800000Y-233826667D01*
X162766667Y-233860000D01*
X162733334Y-233926667D01*
X162733334Y-234093333D01*
X162766667Y-234160000D01*
X162800000Y-234193333D01*
X162866667Y-234226667D01*
X163066667Y-234226667D01*
X163133334Y-234193333D01*
X163166667Y-234160000D01*
X162500000Y-233526667D02*
X162066667Y-233526667D01*
X162300000Y-233793333D01*
X162200000Y-233793333D01*
X162133333Y-233826667D01*
X162100000Y-233860000D01*
X162066667Y-233926667D01*
X162066667Y-234093333D01*
X162100000Y-234160000D01*
X162133333Y-234193333D01*
X162200000Y-234226667D01*
X162400000Y-234226667D01*
X162466667Y-234193333D01*
X162500000Y-234160000D01*
X163433334Y-238646667D02*
X163833334Y-238646667D01*
X163633334Y-238646667D02*
X163633334Y-237946667D01*
X163700000Y-238046667D01*
X163766667Y-238113333D01*
X163833334Y-238146667D01*
X163000000Y-237946667D02*
X162933333Y-237946667D01*
X162866667Y-237980000D01*
X162833333Y-238013333D01*
X162800000Y-238080000D01*
X162766667Y-238213333D01*
X162766667Y-238380000D01*
X162800000Y-238513333D01*
X162833333Y-238580000D01*
X162866667Y-238613333D01*
X162933333Y-238646667D01*
X163000000Y-238646667D01*
X163066667Y-238613333D01*
X163100000Y-238580000D01*
X163133333Y-238513333D01*
X163166667Y-238380000D01*
X163166667Y-238213333D01*
X163133333Y-238080000D01*
X163100000Y-238013333D01*
X163066667Y-237980000D01*
X163000000Y-237946667D01*
X162466666Y-238646667D02*
X162466666Y-237946667D01*
X162066666Y-238646667D02*
X162366666Y-238246667D01*
X162066666Y-237946667D02*
X162466666Y-238346667D01*
X160620000Y-234226667D02*
X160853334Y-233893333D01*
X161020000Y-234226667D02*
X161020000Y-233526667D01*
X160753334Y-233526667D01*
X160686667Y-233560000D01*
X160653334Y-233593333D01*
X160620000Y-233660000D01*
X160620000Y-233760000D01*
X160653334Y-233826667D01*
X160686667Y-233860000D01*
X160753334Y-233893333D01*
X161020000Y-233893333D01*
X160386667Y-233526667D02*
X159953334Y-233526667D01*
X160186667Y-233793333D01*
X160086667Y-233793333D01*
X160020000Y-233826667D01*
X159986667Y-233860000D01*
X159953334Y-233926667D01*
X159953334Y-234093333D01*
X159986667Y-234160000D01*
X160020000Y-234193333D01*
X160086667Y-234226667D01*
X160286667Y-234226667D01*
X160353334Y-234193333D01*
X160386667Y-234160000D01*
X159353333Y-233760000D02*
X159353333Y-234226667D01*
X159520000Y-233493333D02*
X159686667Y-233993333D01*
X159253333Y-233993333D01*
X160653334Y-238646667D02*
X161053334Y-238646667D01*
X160853334Y-238646667D02*
X160853334Y-237946667D01*
X160920000Y-238046667D01*
X160986667Y-238113333D01*
X161053334Y-238146667D01*
X160220000Y-237946667D02*
X160153333Y-237946667D01*
X160086667Y-237980000D01*
X160053333Y-238013333D01*
X160020000Y-238080000D01*
X159986667Y-238213333D01*
X159986667Y-238380000D01*
X160020000Y-238513333D01*
X160053333Y-238580000D01*
X160086667Y-238613333D01*
X160153333Y-238646667D01*
X160220000Y-238646667D01*
X160286667Y-238613333D01*
X160320000Y-238580000D01*
X160353333Y-238513333D01*
X160386667Y-238380000D01*
X160386667Y-238213333D01*
X160353333Y-238080000D01*
X160320000Y-238013333D01*
X160286667Y-237980000D01*
X160220000Y-237946667D01*
X159686666Y-238646667D02*
X159686666Y-237946667D01*
X159286666Y-238646667D02*
X159586666Y-238246667D01*
X159286666Y-237946667D02*
X159686666Y-238346667D01*
X157830000Y-234216667D02*
X158063334Y-233883333D01*
X158230000Y-234216667D02*
X158230000Y-233516667D01*
X157963334Y-233516667D01*
X157896667Y-233550000D01*
X157863334Y-233583333D01*
X157830000Y-233650000D01*
X157830000Y-233750000D01*
X157863334Y-233816667D01*
X157896667Y-233850000D01*
X157963334Y-233883333D01*
X158230000Y-233883333D01*
X157596667Y-233516667D02*
X157163334Y-233516667D01*
X157396667Y-233783333D01*
X157296667Y-233783333D01*
X157230000Y-233816667D01*
X157196667Y-233850000D01*
X157163334Y-233916667D01*
X157163334Y-234083333D01*
X157196667Y-234150000D01*
X157230000Y-234183333D01*
X157296667Y-234216667D01*
X157496667Y-234216667D01*
X157563334Y-234183333D01*
X157596667Y-234150000D01*
X156530000Y-233516667D02*
X156863333Y-233516667D01*
X156896667Y-233850000D01*
X156863333Y-233816667D01*
X156796667Y-233783333D01*
X156630000Y-233783333D01*
X156563333Y-233816667D01*
X156530000Y-233850000D01*
X156496667Y-233916667D01*
X156496667Y-234083333D01*
X156530000Y-234150000D01*
X156563333Y-234183333D01*
X156630000Y-234216667D01*
X156796667Y-234216667D01*
X156863333Y-234183333D01*
X156896667Y-234150000D01*
X157863334Y-238646667D02*
X158263334Y-238646667D01*
X158063334Y-238646667D02*
X158063334Y-237946667D01*
X158130000Y-238046667D01*
X158196667Y-238113333D01*
X158263334Y-238146667D01*
X157430000Y-237946667D02*
X157363333Y-237946667D01*
X157296667Y-237980000D01*
X157263333Y-238013333D01*
X157230000Y-238080000D01*
X157196667Y-238213333D01*
X157196667Y-238380000D01*
X157230000Y-238513333D01*
X157263333Y-238580000D01*
X157296667Y-238613333D01*
X157363333Y-238646667D01*
X157430000Y-238646667D01*
X157496667Y-238613333D01*
X157530000Y-238580000D01*
X157563333Y-238513333D01*
X157596667Y-238380000D01*
X157596667Y-238213333D01*
X157563333Y-238080000D01*
X157530000Y-238013333D01*
X157496667Y-237980000D01*
X157430000Y-237946667D01*
X156896666Y-238646667D02*
X156896666Y-237946667D01*
X156496666Y-238646667D02*
X156796666Y-238246667D01*
X156496666Y-237946667D02*
X156896666Y-238346667D01*
X155060000Y-234216667D02*
X155293334Y-233883333D01*
X155460000Y-234216667D02*
X155460000Y-233516667D01*
X155193334Y-233516667D01*
X155126667Y-233550000D01*
X155093334Y-233583333D01*
X155060000Y-233650000D01*
X155060000Y-233750000D01*
X155093334Y-233816667D01*
X155126667Y-233850000D01*
X155193334Y-233883333D01*
X155460000Y-233883333D01*
X154793334Y-233583333D02*
X154760000Y-233550000D01*
X154693334Y-233516667D01*
X154526667Y-233516667D01*
X154460000Y-233550000D01*
X154426667Y-233583333D01*
X154393334Y-233650000D01*
X154393334Y-233716667D01*
X154426667Y-233816667D01*
X154826667Y-234216667D01*
X154393334Y-234216667D01*
X154160000Y-233516667D02*
X153693333Y-233516667D01*
X153993333Y-234216667D01*
X155093334Y-238646667D02*
X155493334Y-238646667D01*
X155293334Y-238646667D02*
X155293334Y-237946667D01*
X155360000Y-238046667D01*
X155426667Y-238113333D01*
X155493334Y-238146667D01*
X154660000Y-237946667D02*
X154593333Y-237946667D01*
X154526667Y-237980000D01*
X154493333Y-238013333D01*
X154460000Y-238080000D01*
X154426667Y-238213333D01*
X154426667Y-238380000D01*
X154460000Y-238513333D01*
X154493333Y-238580000D01*
X154526667Y-238613333D01*
X154593333Y-238646667D01*
X154660000Y-238646667D01*
X154726667Y-238613333D01*
X154760000Y-238580000D01*
X154793333Y-238513333D01*
X154826667Y-238380000D01*
X154826667Y-238213333D01*
X154793333Y-238080000D01*
X154760000Y-238013333D01*
X154726667Y-237980000D01*
X154660000Y-237946667D01*
X154126666Y-238646667D02*
X154126666Y-237946667D01*
X153726666Y-238646667D02*
X154026666Y-238246667D01*
X153726666Y-237946667D02*
X154126666Y-238346667D01*
M02*
