M48
;DRILL file {KiCad 4.0.4-stable} date 02/16/17 08:27:41
;FORMAT={-:-/ absolute / metric / decimal}
FMAT,2
METRIC,TZ
T1C0.400
T2C0.800
T3C0.813
T4C0.998
T5C1.001
T6C1.016
T7C1.143
T8C1.250
T9C3.200
%
G90
G05
M71
T1
X99.1Y-70.6
X99.1Y-72.2
X101.2Y-191.6
X101.2Y-193.2
X101.2Y-194.8
X101.4Y-228.
X101.4Y-230.6
X101.5Y-209.
X101.5Y-210.6
X102.5Y-88.5
X102.5Y-113.9
X103.3Y-133.
X103.3Y-134.39
X103.3Y-135.79
X105.3Y-88.5
X105.3Y-113.9
X106.24Y-131.33
X108.13Y-180.06
X109.04Y-131.33
X112.1Y-222.
X112.1Y-224.6
X112.8Y-207.75
X113.7Y-187.3
X113.7Y-188.9
X114.35Y-199.78
X114.35Y-201.38
X114.43Y-175.5
X114.43Y-176.87
X114.43Y-178.25
X114.5Y-114.2
X114.5Y-115.9
X114.5Y-117.6
X114.67Y-172.45
X114.81Y-226.84
X115.47Y-139.44
X115.57Y-167.37
X115.68Y-184.85
X116.41Y-164.82
X116.5Y-82.4
X117.17Y-162.29
X117.96Y-178.84
X118.98Y-186.39
X119.1Y-215.5
X119.3Y-82.4
X119.47Y-132.58
X119.83Y-181.32
X120.64Y-139.43
X120.64Y-167.01
X120.7Y-215.5
X120.94Y-191.85
X121.2Y-89.7
X121.2Y-92.5
X121.51Y-155.93
X122.38Y-131.84
X123.2Y-173.52
X123.2Y-174.82
X124.92Y-132.3
X125.6Y-89.7
X125.6Y-92.5
X127.47Y-125.99
X131.38Y-152.13
X132.55Y-126.05
X134.2Y-131.8
X134.9Y-222.5
X135.25Y-226.24
X135.92Y-131.8
X136.5Y-222.5
X136.5Y-228.79
X136.5Y-230.4
X137.62Y-131.8
X137.95Y-148.32
X138.24Y-197.32
X138.24Y-202.4
X139.05Y-149.59
X139.52Y-131.8
X139.94Y-197.32
X139.94Y-202.4
X140.02Y-213.04
X141.Y-191.4
X141.Y-193.2
X141.64Y-197.32
X141.64Y-202.4
X141.71Y-223.25
X142.94Y-207.13
X143.21Y-218.1
X143.29Y-178.8
X144.3Y-154.68
X144.3Y-162.07
X145.97Y-164.83
X146.02Y-202.96
X146.03Y-205.54
X146.61Y-215.1
X146.61Y-216.7
X146.89Y-150.86
X146.89Y-158.48
X146.99Y-200.61
X147.2Y-223.3
X147.79Y-154.65
X148.Y-202.1
X148.Y-203.7
X148.15Y-195.33
X148.4Y-228.696
X148.4Y-230.304
X148.62Y-144.41
X148.8Y-223.3
X149.48Y-206.99
X149.49Y-197.61
X150.27Y-107.96
X150.27Y-108.85
X151.61Y-110.7
X152.12Y-197.61
X152.6Y-184.1
X152.6Y-185.7
X152.6Y-193.55
X153.6Y-202.1
X153.6Y-203.7
X154.19Y-193.55
X154.63Y-105.65
X155.1Y-197.11
X155.15Y-143.46
X155.4Y-171.15
X156.Y-227.4
X156.68Y-99.19
X156.7Y-197.11
X157.8Y-180.7
X158.79Y-223.
X158.79Y-227.4
X159.22Y-99.19
X159.4Y-180.7
X161.56Y-223.
X161.56Y-227.4
X161.75Y-99.19
X163.22Y-160.6
X163.63Y-164.81
X163.99Y-158.39
X164.33Y-223.
X164.33Y-227.41
X164.4Y-177.1
X166.Y-177.1
X167.05Y-223.
X167.12Y-227.4
X167.61Y-133.56
X167.61Y-134.65
X167.62Y-131.82
X169.9Y-227.4
X170.24Y-144.48
X170.88Y-169.88
X171.Y-180.7
X171.91Y-106.45
X172.02Y-163.75
X172.6Y-180.7
X172.68Y-227.4
X173.21Y-154.64
X173.6Y-210.7
X173.6Y-212.3
X174.3Y-236.2
X175.23Y-137.8
X175.23Y-138.9
X175.75Y-227.4
X175.9Y-236.2
X177.6Y-177.1
X179.2Y-177.1
X179.65Y-109.87
X179.65Y-111.33
X179.65Y-112.77
X179.65Y-114.7
X179.65Y-116.1
X180.22Y-147.
X180.22Y-149.56
X180.22Y-153.37
X181.2Y-223.8
X182.42Y-163.53
X182.8Y-185.85
X182.8Y-187.45
X182.8Y-223.8
X182.81Y-205.7
X182.81Y-207.3
X183.52Y-126.13
X183.9Y-98.3
X183.9Y-99.9
X185.4Y-64.1
X185.4Y-65.7
T2
X101.28Y-204.67
X101.87Y-82.16
X101.87Y-85.66
X104.78Y-204.67
X105.87Y-123.46
X105.87Y-128.54
X108.01Y-85.66
X108.41Y-123.46
X108.41Y-128.54
X110.Y-72.7
X110.3Y-140.7
X110.3Y-143.24
X110.3Y-145.78
X110.3Y-148.32
X110.3Y-150.86
X110.3Y-153.4
X110.3Y-155.94
X110.3Y-158.48
X110.3Y-161.02
X110.3Y-163.56
X110.3Y-166.1
X110.3Y-168.64
X110.3Y-171.18
X110.3Y-173.72
X110.3Y-176.26
X110.3Y-178.8
X110.3Y-181.34
X110.3Y-183.88
X110.3Y-186.42
X110.3Y-188.96
X110.95Y-123.46
X110.95Y-128.54
X112.5Y-72.7
X113.01Y-85.66
X113.49Y-123.46
X113.49Y-128.54
X113.7Y-68.5
X113.7Y-76.2
X115.9Y-196.76
X115.9Y-204.38
X115.9Y-212.18
X115.9Y-219.8
X116.03Y-123.46
X116.03Y-128.54
X116.2Y-68.5
X116.2Y-76.2
X118.44Y-196.76
X118.44Y-204.38
X118.44Y-212.18
X118.44Y-219.8
X118.57Y-123.46
X118.57Y-128.54
X120.98Y-196.76
X120.98Y-204.38
X120.98Y-212.18
X120.98Y-219.8
X121.11Y-123.46
X121.11Y-128.54
X123.52Y-196.76
X123.52Y-204.38
X123.52Y-212.18
X123.52Y-219.8
X123.65Y-123.46
X123.65Y-128.54
X125.54Y-140.7
X125.54Y-143.24
X125.54Y-145.78
X125.54Y-148.32
X125.54Y-150.86
X125.54Y-153.4
X125.54Y-155.94
X125.54Y-158.48
X125.54Y-161.02
X125.54Y-163.56
X125.54Y-166.1
X125.54Y-168.64
X125.54Y-171.18
X125.54Y-173.72
X125.54Y-176.26
X125.54Y-178.8
X125.54Y-181.34
X125.54Y-183.88
X125.54Y-186.42
X125.54Y-188.96
X125.7Y-68.5
X125.7Y-71.04
X125.7Y-73.58
X125.7Y-76.12
X126.06Y-196.76
X126.06Y-204.38
X126.06Y-212.18
X126.06Y-219.8
X126.19Y-123.46
X126.19Y-128.54
X127.46Y-97.52
X127.46Y-112.76
X128.6Y-196.76
X128.6Y-204.38
X128.6Y-212.18
X128.6Y-219.8
X128.73Y-123.46
X128.73Y-128.54
X129.Y-56.9
X129.Y-59.4
X130.Y-97.52
X130.Y-112.76
X131.14Y-196.76
X131.14Y-204.38
X131.14Y-212.18
X131.14Y-219.8
X131.27Y-123.46
X131.27Y-128.54
X132.54Y-97.52
X132.54Y-112.76
X133.32Y-68.5
X133.32Y-71.04
X133.32Y-73.58
X133.32Y-76.12
X133.68Y-196.76
X133.68Y-204.38
X133.68Y-212.18
X133.68Y-219.8
X133.81Y-123.46
X133.81Y-128.54
X134.68Y-140.7
X134.68Y-143.24
X134.68Y-145.78
X134.68Y-148.32
X134.68Y-150.86
X134.68Y-153.4
X134.68Y-155.94
X134.68Y-158.48
X134.68Y-161.02
X134.68Y-163.56
X134.68Y-166.1
X134.68Y-168.64
X134.68Y-171.18
X134.68Y-173.72
X135.08Y-97.52
X135.08Y-112.76
X136.35Y-123.46
X136.35Y-128.54
X137.62Y-97.52
X137.62Y-112.76
X138.89Y-123.46
X138.89Y-128.54
X140.16Y-97.52
X140.16Y-112.76
X141.43Y-123.46
X141.43Y-128.54
X142.2Y-68.1
X142.3Y-140.7
X142.3Y-143.24
X142.3Y-145.78
X142.3Y-148.32
X142.3Y-150.86
X142.3Y-153.4
X142.3Y-155.94
X142.3Y-158.48
X142.3Y-161.02
X142.3Y-163.56
X142.3Y-166.1
X142.3Y-168.64
X142.3Y-171.18
X142.3Y-173.72
X142.7Y-97.52
X142.7Y-112.76
X143.97Y-123.46
X143.97Y-128.54
X144.7Y-68.1
X145.24Y-97.52
X145.24Y-112.76
X146.51Y-123.46
X146.51Y-128.54
X147.78Y-97.52
X147.78Y-112.76
X148.1Y-71.35
X148.1Y-73.85
X149.05Y-123.46
X149.05Y-128.54
X150.32Y-97.52
X150.32Y-112.76
X151.2Y-211.45
X151.2Y-219.07
X151.37Y-140.68
X151.37Y-143.22
X151.37Y-145.76
X151.37Y-148.3
X151.37Y-150.84
X151.37Y-153.38
X151.37Y-155.92
X151.37Y-158.46
X151.37Y-161.
X151.37Y-163.54
X151.37Y-166.08
X151.37Y-168.62
X151.37Y-171.16
X151.37Y-173.7
X151.59Y-123.46
X151.59Y-128.54
X152.86Y-97.52
X152.86Y-112.76
X153.74Y-211.45
X153.74Y-219.07
X154.13Y-123.46
X154.13Y-128.54
X154.5Y-71.004
X154.5Y-72.8
X155.4Y-97.52
X155.4Y-112.76
X156.28Y-211.45
X156.28Y-219.07
X156.296Y-71.004
X156.67Y-123.46
X156.67Y-128.54
X157.94Y-97.52
X157.94Y-112.76
X158.82Y-211.45
X158.82Y-219.07
X158.99Y-140.68
X158.99Y-143.22
X158.99Y-145.76
X158.99Y-148.3
X158.99Y-150.84
X158.99Y-153.38
X158.99Y-155.92
X158.99Y-158.46
X158.99Y-161.
X158.99Y-163.54
X158.99Y-166.08
X158.99Y-168.62
X158.99Y-171.16
X158.99Y-173.7
X159.21Y-123.46
X159.21Y-128.54
X160.48Y-97.52
X160.48Y-112.76
X161.36Y-211.45
X161.36Y-219.07
X161.75Y-123.46
X161.75Y-128.54
X163.02Y-97.52
X163.02Y-112.76
X163.504Y-77.796
X163.9Y-211.45
X163.9Y-219.07
X164.29Y-123.46
X164.29Y-128.54
X164.67Y-191.614
X164.67Y-193.41
X165.3Y-76.
X165.3Y-77.796
X165.56Y-97.52
X165.56Y-112.76
X166.44Y-211.45
X166.44Y-219.07
X166.466Y-191.614
X166.83Y-123.46
X166.83Y-128.54
X167.61Y-140.67
X167.61Y-143.21
X167.61Y-145.75
X167.61Y-148.29
X167.61Y-150.83
X167.61Y-153.37
X167.61Y-155.91
X167.61Y-158.45
X167.61Y-160.99
X167.61Y-163.53
X168.1Y-97.52
X168.1Y-112.76
X168.98Y-211.45
X168.98Y-219.07
X169.37Y-123.46
X169.37Y-128.54
X169.909Y-202.27
X170.64Y-97.52
X170.64Y-112.76
X171.91Y-123.46
X171.91Y-128.54
X171.94Y-191.614
X171.94Y-193.41
X173.18Y-97.52
X173.18Y-112.76
X173.736Y-191.614
X174.45Y-123.46
X174.45Y-128.54
X174.791Y-202.27
X175.23Y-140.67
X175.23Y-143.21
X175.23Y-145.75
X175.23Y-148.29
X175.23Y-150.83
X175.23Y-153.37
X175.23Y-155.91
X175.23Y-158.45
X175.23Y-160.99
X175.23Y-163.53
X175.72Y-97.52
X175.72Y-112.76
X176.99Y-123.46
X176.99Y-128.54
X179.2Y-211.32
X179.53Y-123.46
X179.53Y-128.54
X181.7Y-211.32
T3
X174.7Y-215.5
X174.7Y-220.5
X181.7Y-215.5
X181.7Y-220.5
T4
X141.44Y-229.5
X143.98Y-229.5
T6
X112.72Y-229.5
X114.11Y-232.28
X115.5Y-229.5
X116.89Y-232.28
X118.28Y-229.5
X119.67Y-232.28
X121.06Y-229.5
X122.45Y-232.28
X123.84Y-229.5
X125.23Y-232.28
X126.62Y-229.5
X128.01Y-232.28
X129.4Y-229.5
X130.79Y-232.28
X132.18Y-229.5
X153.22Y-229.5
X154.61Y-232.28
X156.Y-229.5
X157.39Y-232.28
X158.78Y-229.5
X160.17Y-232.28
X161.56Y-229.5
X162.95Y-232.28
X164.34Y-229.5
X165.73Y-232.28
X167.12Y-229.5
X168.51Y-232.28
X169.9Y-229.5
X171.29Y-232.28
X172.68Y-229.5
T7
X106.8Y-98.51
X106.8Y-101.05
X106.8Y-103.59
T8
X106.177Y-215.491
X106.177Y-218.491
X106.177Y-221.491
T9
X102.1Y-58.9
X106.6Y-235.35
X180.8Y-232.6
X183.8Y-58.9
T2
X105.802Y-211.991G85X106.552Y-211.991
G05
X105.802Y-224.991G85X106.552Y-224.991
G05
T5
X168.501Y-61.201G85X168.501Y-63.2
G05
X174.199Y-59.201G85X172.201Y-59.201
G05
X174.199Y-65.2G85X172.201Y-65.2
G05
T6
X108.45Y-60.738G85X108.45Y-62.262
G05
X112.938Y-56.2G85X114.462Y-56.2
G05
X112.938Y-61.5G85X114.462Y-61.5
G05
X118.95Y-60.738G85X118.95Y-62.262
G05
X139.45Y-60.738G85X139.45Y-62.262
G05
X143.938Y-56.2G85X145.462Y-56.2
G05
X143.938Y-61.5G85X145.462Y-61.5
G05
X149.95Y-60.738G85X149.95Y-62.262
G05
X154.45Y-60.738G85X154.45Y-62.262
G05
X158.938Y-56.2G85X160.462Y-56.2
G05
X158.938Y-61.5G85X160.462Y-61.5
G05
X164.95Y-60.738G85X164.95Y-62.262
G05
T0
M30
